<svg width="26" height="19" viewBox="0 0 26 19" fill="none" xmlns="http://www.w3.org/2000/svg">
<path d="M8.79533 0.000449776C8.70382 0.00261393 8.61147 0.0130196 8.51939 0.0312892C7.34526 0.264542 6.13892 0.67316 4.916 1.17014C4.28636 1.42617 3.75083 1.86917 3.37665 2.44227C0.559743 6.7563 -0.233518 11.2251 0.23169 15.7032C0.240405 15.7881 0.268008 15.8699 0.312417 15.9424C0.356826 16.0149 0.416884 16.0762 0.488067 16.1217C2.2488 17.2477 4.06582 18.2308 5.9893 18.905C6.71546 19.1597 7.52507 18.8645 7.94581 18.2111L8.86376 16.7848C9.25935 16.8963 9.66522 16.9904 10.0761 17.0756C11.0132 17.3096 11.9871 17.439 12.9886 17.439C14.0182 17.439 15.0192 17.3038 15.9804 17.0568C16.3576 16.976 16.7301 16.8868 17.095 16.7837L18.0553 18.2342C18.4793 18.8754 19.28 19.1604 19.9977 18.9094C21.9257 18.2346 23.7473 17.2499 25.512 16.1217C25.5831 16.0762 25.6432 16.0149 25.6876 15.9424C25.732 15.8699 25.7596 15.7881 25.7683 15.7032C26.2335 11.2256 25.4408 6.75685 22.6245 2.44337L22.6234 2.44117L22.6212 2.43786V2.44007C22.2469 1.86673 21.7102 1.42437 21.0808 1.16904C19.8585 0.672666 18.6536 0.264533 17.4806 0.0312892C16.7437 -0.115097 15.9989 0.268663 15.6556 0.94766L15.5535 1.15032C14.8489 1.06859 14.0882 1.00224 12.9995 1.02916C11.9116 1.00231 11.1512 1.06833 10.4466 1.15032L10.3444 0.94766H10.3434C10.0428 0.353887 9.43587 -0.0146994 8.79533 0.000449776ZM8.91591 1.13159C9.09452 1.15574 9.25593 1.26999 9.35371 1.46312L9.61877 1.98629C9.67152 2.09028 9.75484 2.17509 9.85722 2.22896C9.95959 2.28283 10.0759 2.3031 10.1902 2.28697C10.9075 2.18672 11.7659 2.12497 12.9864 2.1559C12.9955 2.15613 13.0045 2.15613 13.0136 2.1559C14.234 2.12497 15.0931 2.18718 15.8109 2.28697C15.925 2.30286 16.0411 2.28247 16.1433 2.22861C16.2454 2.17476 16.3286 2.09009 16.3813 1.98629L16.6463 1.46312C16.7758 1.20714 17.0213 1.08947 17.2666 1.1382C18.3397 1.35159 19.4841 1.73505 20.6669 2.21538C21.0892 2.38646 21.444 2.67861 21.6946 3.06236L21.6956 3.06346L21.6978 3.06677C24.3151 7.07597 25.0551 11.1386 24.6711 15.3111C23.0307 16.3436 21.3649 17.2377 19.6348 17.8432C19.3914 17.9284 19.1376 17.8451 18.9798 17.6064L18.1085 16.2914C18.4356 16.1384 18.7577 15.9763 19.0699 15.7957C19.1362 15.7606 19.1948 15.7123 19.2423 15.6537C19.2897 15.5951 19.325 15.5275 19.3461 15.4547C19.3671 15.382 19.3735 15.3057 19.3648 15.2304C19.3561 15.1551 19.3326 15.0823 19.2955 15.0165C19.2585 14.9506 19.2087 14.893 19.1492 14.8471C19.0897 14.8012 19.0217 14.7679 18.9492 14.7493C18.8768 14.7306 18.8013 14.7269 18.7274 14.7385C18.6536 14.7501 18.5827 14.7766 18.5192 14.8166C17.5544 15.3745 16.5103 15.7852 15.4122 16.0347C14.6352 16.1762 13.8295 16.2657 12.9832 16.2837C12.1692 16.2663 11.3882 16.1831 10.6345 16.0513C9.51113 15.8036 8.44428 15.3862 7.45912 14.8166C7.37865 14.7683 7.28749 14.7415 7.19406 14.7384C7.06924 14.7343 6.94671 14.773 6.84619 14.8481C6.74566 14.9232 6.673 15.0304 6.63988 15.1525C6.60677 15.2746 6.61514 15.4044 6.66364 15.5211C6.71214 15.6378 6.79795 15.7345 6.90726 15.7957C7.21556 15.974 7.53395 16.1334 7.85673 16.2848L7.01372 17.5943C6.85711 17.8375 6.59821 17.9248 6.35323 17.8388C4.6276 17.2339 2.96535 16.3423 1.3289 15.3122C0.944583 11.1383 1.68563 7.07514 4.30439 3.06456C4.55539 2.68012 4.9083 2.38791 5.32989 2.21648C6.51312 1.73563 7.65935 1.35158 8.7334 1.1382C8.79509 1.12596 8.85637 1.12355 8.91591 1.13159ZM16.6735 7.10122C15.6122 7.10122 14.7387 8.25299 14.7387 9.65208C14.7387 11.0512 15.6122 12.2018 16.6735 12.2018C17.7347 12.2018 18.6072 11.0512 18.6072 9.65208C18.6072 8.25299 17.7347 7.10122 16.6735 7.10122ZM9.44604 7.14638C8.37479 7.14638 7.49389 8.29119 7.49389 9.68182C7.49389 11.0724 8.37479 12.2162 9.44604 12.2162C10.5173 12.2162 11.3993 11.0724 11.3993 9.68182C11.3993 8.29119 10.5173 7.14638 9.44604 7.14638Z" fill="white"/>
<path d="M8.79533 0.000449776C8.70382 0.00261393 8.61147 0.0130196 8.51939 0.0312892C7.34526 0.264542 6.13892 0.67316 4.916 1.17014C4.28636 1.42617 3.75083 1.86917 3.37665 2.44227C0.559743 6.7563 -0.233518 11.2251 0.23169 15.7032C0.240405 15.7881 0.268008 15.8699 0.312417 15.9424C0.356826 16.0149 0.416884 16.0762 0.488067 16.1217C2.2488 17.2477 4.06582 18.2308 5.9893 18.905C6.71546 19.1597 7.52507 18.8645 7.94581 18.2111L8.86376 16.7848C9.25935 16.8963 9.66522 16.9904 10.0761 17.0756C11.0132 17.3096 11.9871 17.439 12.9886 17.439C14.0182 17.439 15.0192 17.3038 15.9804 17.0568C16.3576 16.976 16.7301 16.8868 17.095 16.7837L18.0553 18.2342C18.4793 18.8754 19.28 19.1604 19.9977 18.9094C21.9257 18.2346 23.7473 17.2499 25.512 16.1217C25.5831 16.0762 25.6432 16.0149 25.6876 15.9424C25.732 15.8699 25.7596 15.7881 25.7683 15.7032C26.2335 11.2256 25.4408 6.75685 22.6245 2.44337L22.6234 2.44117L22.6212 2.43786V2.44007C22.2469 1.86673 21.7102 1.42437 21.0808 1.16904C19.8585 0.672666 18.6536 0.264533 17.4806 0.0312892C16.7437 -0.115097 15.9989 0.268663 15.6556 0.94766L15.5535 1.15032C14.8489 1.06859 14.0882 1.00224 12.9995 1.02916C11.9116 1.00231 11.1512 1.06833 10.4466 1.15032L10.3444 0.94766H10.3434C10.0428 0.353887 9.43587 -0.0146994 8.79533 0.000449776ZM8.91591 1.13159C9.09452 1.15574 9.25593 1.26999 9.35371 1.46312L9.61877 1.98629C9.67152 2.09028 9.75484 2.17509 9.85722 2.22896C9.95959 2.28283 10.0759 2.3031 10.1902 2.28697C10.9075 2.18672 11.7659 2.12497 12.9864 2.1559C12.9955 2.15613 13.0045 2.15613 13.0136 2.1559C14.234 2.12497 15.0931 2.18718 15.8109 2.28697C15.925 2.30286 16.0411 2.28247 16.1433 2.22861C16.2454 2.17476 16.3286 2.09009 16.3813 1.98629L16.6463 1.46312C16.7758 1.20714 17.0213 1.08947 17.2666 1.1382C18.3397 1.35159 19.4841 1.73505 20.6669 2.21538C21.0892 2.38646 21.444 2.67861 21.6946 3.06236L21.6956 3.06346L21.6978 3.06677C24.3151 7.07597 25.0551 11.1386 24.6711 15.3111C23.0307 16.3436 21.3649 17.2377 19.6348 17.8432C19.3914 17.9284 19.1376 17.8451 18.9798 17.6064L18.1085 16.2914C18.4356 16.1384 18.7577 15.9763 19.0699 15.7957C19.1362 15.7606 19.1948 15.7123 19.2423 15.6537C19.2897 15.5951 19.325 15.5275 19.3461 15.4547C19.3671 15.382 19.3735 15.3057 19.3648 15.2304C19.3561 15.1551 19.3326 15.0823 19.2955 15.0165C19.2585 14.9506 19.2087 14.893 19.1492 14.8471C19.0897 14.8012 19.0217 14.7679 18.9492 14.7493C18.8768 14.7306 18.8013 14.7269 18.7274 14.7385C18.6536 14.7501 18.5827 14.7766 18.5192 14.8166C17.5544 15.3745 16.5103 15.7852 15.4122 16.0347C14.6352 16.1762 13.8295 16.2657 12.9832 16.2837C12.1692 16.2663 11.3882 16.1831 10.6345 16.0513C9.51113 15.8036 8.44428 15.3862 7.45912 14.8166C7.37865 14.7683 7.28749 14.7415 7.19406 14.7384C7.06924 14.7343 6.94671 14.773 6.84619 14.8481C6.74566 14.9232 6.673 15.0304 6.63988 15.1525C6.60677 15.2746 6.61514 15.4044 6.66364 15.5211C6.71214 15.6378 6.79795 15.7345 6.90726 15.7957C7.21556 15.974 7.53395 16.1334 7.85673 16.2848L7.01372 17.5943C6.85711 17.8375 6.59821 17.9248 6.35323 17.8388C4.6276 17.2339 2.96535 16.3423 1.3289 15.3122C0.944583 11.1383 1.68563 7.07514 4.30439 3.06456C4.55539 2.68012 4.9083 2.38791 5.32989 2.21648C6.51312 1.73563 7.65935 1.35158 8.7334 1.1382C8.79509 1.12596 8.85637 1.12355 8.91591 1.13159ZM16.6735 7.10122C15.6122 7.10122 14.7387 8.25299 14.7387 9.65208C14.7387 11.0512 15.6122 12.2018 16.6735 12.2018C17.7347 12.2018 18.6072 11.0512 18.6072 9.65208C18.6072 8.25299 17.7347 7.10122 16.6735 7.10122ZM9.44604 7.14638C8.37479 7.14638 7.49389 8.29119 7.49389 9.68182C7.49389 11.0724 8.37479 12.2162 9.44604 12.2162C10.5173 12.2162 11.3993 11.0724 11.3993 9.68182C11.3993 8.29119 10.5173 7.14638 9.44604 7.14638Z" stroke="white"/>
</svg>
