<svg width="79" height="118" viewBox="0 0 79 118" fill="none" xmlns="http://www.w3.org/2000/svg">
<rect y="-3" width="79" height="121" fill="white"/>
<path d="M39.9382 78.3596C54.1085 78.3596 65.5958 66.8724 65.5958 52.7021C65.5958 38.5318 54.1085 27.0445 39.9382 27.0445C25.7679 27.0445 14.2806 38.5318 14.2806 52.7021C14.2806 66.8724 25.7679 78.3596 39.9382 78.3596Z" fill="white"/>
<path d="M53.0593 40.5399C52.7553 40.0487 52.4746 39.5341 52.2407 38.9962C52.0302 38.5284 51.4221 38.4816 51.0011 38.7155C50.4632 38.6688 49.855 39.0898 50.0655 39.768C50.3462 40.6802 50.7438 41.569 51.235 42.411C51.5858 43.0191 52.3577 42.9021 52.6851 42.4344C52.9892 42.4578 53.2698 42.3174 53.4803 42.0134C53.6207 41.8029 53.6674 41.5924 53.6908 41.3351C53.7142 40.9843 53.4102 40.6568 53.0593 40.5399Z" fill="black"/>
<path d="M49.7849 30.506C49.5744 30.2487 49.1534 30.4125 49.0598 30.6931C49.0131 30.6697 48.9429 30.6697 48.8961 30.6464C48.5921 30.623 48.4283 30.9504 48.4751 31.1843C48.4985 31.2779 48.5219 31.3948 48.5219 31.4884C48.288 31.5585 48.1243 31.8392 48.2412 32.1199C48.4751 32.6344 48.6155 33.149 48.7324 33.7103C48.7792 33.9676 48.9897 34.0377 49.2002 34.0144C49.2002 34.0377 49.2236 34.0611 49.2469 34.0845C49.3639 34.2716 49.551 34.3184 49.6913 34.2716C49.8083 34.5523 50.2527 34.6926 50.4632 34.3418C51.1648 33.2659 50.5333 31.4182 49.7849 30.506Z" fill="#819CC1"/>
<path d="M65.4555 53.9885C65.4555 53.8715 65.4789 53.778 65.4789 53.661C65.4789 53.5909 65.4789 53.5207 65.4555 53.4505C65.5491 53.3102 65.6193 53.1465 65.6193 52.9594C65.5959 51.9536 65.5491 50.9713 65.4555 49.9656C65.3854 49.147 65.362 48.2582 64.9644 47.5331C64.9644 47.463 64.9644 47.3928 64.9644 47.3226C64.5668 44.399 63.1634 41.7327 61.573 39.3003C60.4036 37.4993 59.1873 35.4411 57.3864 34.2249C57.0122 33.7805 56.6146 33.3829 56.1702 33.0087C56.0298 32.8917 55.8895 32.8216 55.7258 32.7982C55.4217 32.5175 55.1177 32.2368 54.8136 31.9796C54.7201 31.886 54.6031 31.8392 54.4862 31.8158C54.3692 31.6989 54.2289 31.6287 54.112 31.6053C53.9248 31.465 53.7377 31.3247 53.5272 31.1843C53.5038 31.1609 53.4804 31.1376 53.4337 31.1376C53.0127 30.8569 52.6151 30.5762 52.1707 30.319C52.2408 30.2722 52.2876 30.202 52.311 30.0851C52.3344 30.0149 52.3344 29.9447 52.3578 29.8746C52.7788 29.4302 53.153 28.9624 53.4804 28.4478C54.0886 27.9333 54.6265 27.3953 55.1644 26.8106C55.1878 26.8106 55.2112 26.7872 55.258 26.7872C55.8193 26.53 56.3105 26.1557 56.7315 25.7113C56.8017 25.6412 56.8251 25.5476 56.8484 25.4775C57.2227 25.2436 57.5969 25.0331 57.9711 24.8226C58.0647 24.7758 58.1348 24.7056 58.1582 24.6121C58.3453 24.5653 58.4623 24.4483 58.6728 24.2612C59.0002 23.9806 59.3978 23.7701 59.7954 23.583C60.1463 23.4192 60.4971 23.2789 60.8479 23.1152C61.2689 22.9281 61.7601 22.5538 62.2279 22.7176C62.415 22.7643 62.5553 22.7176 62.6489 22.624C63.1167 22.9047 63.561 22.1562 63.0933 21.8756C62.6021 21.5949 62.3214 21.4312 61.7367 21.5481C61.0584 21.6651 60.3802 21.8522 59.7253 22.0861C59.1406 22.2966 58.5792 22.5772 58.0413 22.8813C57.4098 23.2555 56.7549 23.466 56.0532 23.6999C55.9363 23.7467 55.8661 23.8168 55.7959 23.887C55.5153 24.0273 55.2346 24.1911 55.0241 24.308C54.5797 24.5419 54.1587 24.7992 53.7377 25.0565C53.691 25.0331 53.6676 25.0331 53.6208 25.0331C53.1764 25.0331 52.7788 25.4073 52.428 25.6412C51.9368 25.9686 51.4456 26.3428 50.9778 26.6937C50.9544 26.7171 50.9311 26.7405 50.9077 26.7638C50.7673 26.8574 50.627 26.951 50.5101 27.0445C50.3931 26.9977 50.2762 26.9977 50.1592 27.0679C49.5979 27.4421 49.06 27.8397 48.5454 28.2841C48.4518 28.3543 48.4051 28.4478 48.4051 28.5414C48.0542 28.4245 47.68 28.3543 47.3058 28.2841C47.2824 28.2841 47.259 28.2841 47.2356 28.2841C46.8848 28.0035 46.5106 27.8163 46.0662 27.6994C45.9726 27.676 45.9025 27.676 45.8323 27.6994C45.7153 27.6526 45.575 27.6526 45.4581 27.7228C45.4347 27.7462 45.4113 27.7696 45.3879 27.7696C45.3411 27.7462 45.2944 27.7462 45.2242 27.7462H45.2008C44.9903 27.6058 44.6628 27.6526 44.5693 27.9801C44.5459 28.0502 44.5459 28.097 44.5225 28.1438C44.4757 28.2373 44.4524 28.3309 44.4056 28.4478C44.3588 28.5414 44.3822 28.635 44.4056 28.7285C44.4056 28.7519 44.4056 28.7519 44.4056 28.7753C44.3822 28.8455 44.3822 28.9156 44.3588 28.9858C44.3588 29.0326 44.3588 29.056 44.3588 29.0793C44.2886 29.2898 44.2185 29.5003 44.1951 29.7108C44.1951 29.7576 44.1951 29.781 44.1951 29.8278C44.1483 29.8979 44.1015 29.9681 44.1015 30.0851C44.1015 30.1552 44.1015 30.2488 44.1015 30.319C44.0781 30.7867 43.9612 31.2311 43.9612 31.6989C43.9612 32.0029 43.9846 32.307 44.008 32.6111C43.9846 32.9151 43.9846 33.1958 44.0314 33.4998C44.0314 33.5232 44.0314 33.57 44.0547 33.5934C44.1015 34.4354 44.2185 35.3008 44.4523 36.1194C44.4523 36.1662 44.4523 36.2363 44.4523 36.2831C44.5459 36.6573 44.6628 37.0082 44.7798 37.3824C44.7798 37.4058 44.7798 37.4058 44.7798 37.4292C44.8733 38.0139 45.1072 38.5284 45.3645 39.043C45.3645 39.0664 45.3645 39.0898 45.3879 39.1365C45.8323 40.7504 46.8614 42.3174 47.7268 43.7442C47.7502 43.8611 47.8203 43.978 47.9139 44.0482C48.1478 44.2821 48.5454 44.1184 48.639 43.8611C48.639 43.8611 48.639 43.8611 48.6623 43.8611C48.8027 43.9313 48.9664 43.9079 49.0833 43.8611C49.2938 43.978 49.5979 43.8845 49.7148 43.674C49.9721 43.6506 50.206 43.3933 50.1125 43.136C50.1125 43.1126 50.1125 43.1127 50.0891 43.1127C50.1826 43.0659 50.2762 42.9723 50.323 42.8554C50.4633 42.8554 50.5802 42.8086 50.6972 42.7384C50.7206 42.7618 50.7673 42.7618 50.7907 42.7852L51.6093 43.7909C52.2175 44.5394 52.8256 45.3112 53.9014 45.0773C54.1119 45.0305 54.2991 44.8668 54.416 44.6797C54.5096 44.8902 54.6031 45.1007 54.7201 45.3112C55.1411 46.1532 55.679 46.8783 56.4508 47.4162C56.521 47.463 56.5912 47.4864 56.6613 47.5098C56.6847 47.5799 56.6847 47.6267 56.7081 47.6969C56.8017 48.0711 57.1291 48.2582 57.4799 48.305C57.5501 48.4921 57.6437 48.6792 57.7138 48.8663C57.4566 49.1704 57.4098 49.5914 57.7606 49.9422C57.2928 50.0591 56.9654 50.714 57.1993 51.2052C57.1993 51.2052 57.1993 51.2052 57.1759 51.2286C57.1057 51.3221 57.0589 51.3923 57.0122 51.4859C56.3573 51.6262 56.1234 52.6553 56.7783 53.0763C57.3864 53.4739 57.9945 53.9183 58.6494 54.2224C58.6728 54.2224 58.6728 54.2457 58.6962 54.2457C58.7196 54.2691 58.7429 54.2925 58.7663 54.3159C58.9534 54.4562 59.1639 54.503 59.3978 54.5732L59.6551 54.6667C59.6785 54.6667 59.6785 54.6901 59.7019 54.6901C59.8656 54.8071 60.0293 54.8772 60.2164 54.9474C60.2866 54.9708 60.3334 54.9708 60.3802 54.9708C60.5673 55.041 60.7544 55.1345 60.9415 55.2047C60.9883 55.2749 61.0818 55.345 61.1988 55.3684C61.2923 55.3918 61.3625 55.3918 61.4561 55.4152C61.5028 55.4152 61.5496 55.4152 61.5964 55.4152C61.7835 55.4854 61.994 55.5789 62.1577 55.6257C62.4852 55.7192 62.8126 55.7894 63.14 55.8596C63.6078 55.9297 64.099 55.9765 64.5902 55.9999C64.6837 56.0233 64.8007 56.0233 64.8942 55.9999C64.941 55.9999 64.9878 55.9999 65.0579 55.9999C65.1047 55.9999 65.1281 55.9999 65.1749 55.9765C65.362 55.9531 65.4789 55.7894 65.4789 55.6023C65.5959 55.4386 65.6427 55.2047 65.5725 54.9474C65.4555 54.5966 65.4322 54.2925 65.4555 53.9885Z" fill="#829FC7"/>
<path d="M35.7516 32.3538C35.7516 32.2836 35.775 32.2368 35.775 32.1666C35.775 31.8392 35.7516 31.5351 35.7282 31.2077C35.7282 30.9738 35.6815 30.7399 35.6347 30.5294C35.6113 30.2721 35.5879 30.0149 35.5411 29.7576C35.5645 29.6874 35.5645 29.5939 35.5177 29.5003C35.4944 29.4301 35.471 29.36 35.4476 29.2664C35.4242 29.1729 35.4008 29.0793 35.3774 28.9858C35.354 28.9156 35.3306 28.8688 35.3072 28.8454C35.2839 28.6583 35.2371 28.4712 35.1903 28.2841C35.1669 28.2139 35.1435 28.1438 35.0967 28.097C35.0967 28.0736 35.0967 28.0502 35.0967 28.0268C35.05 27.6526 34.6056 27.5357 34.3717 27.6994C34.3249 27.7228 34.2781 27.7695 34.2314 27.8163C34.0676 27.7462 33.8805 27.7695 33.7636 27.8865C33.6232 27.8865 33.4829 27.9566 33.3894 28.0502C33.1789 27.9333 32.8748 28.0034 32.7579 28.2139C32.5474 28.097 32.2199 28.2373 32.1497 28.4712C31.9626 28.3309 31.6586 28.3777 31.5416 28.5648C31.5182 28.5414 31.4949 28.5414 31.4715 28.518C31.1674 28.2139 30.84 27.9333 30.4891 27.6526C29.998 27.1614 29.4133 26.7872 28.8051 26.4364C28.7818 26.3428 28.735 26.2493 28.6882 26.1791C28.618 26.1323 28.5479 26.0622 28.4777 26.0154C28.3841 25.9452 28.2906 25.8984 28.1736 25.8984C28.1035 25.8984 28.0333 25.9218 27.9631 25.9452C26.5364 24.9629 25.0161 24.1677 23.4491 23.4426C22.724 22.9982 21.9288 22.6708 21.1102 22.3901C21.0167 22.3667 20.9231 22.3667 20.8295 22.4135C20.2214 22.1328 19.6133 21.8989 18.9584 21.7118C18.8415 21.6884 18.7245 21.7118 18.631 21.7586C18.3035 21.665 17.9293 21.6417 17.5785 21.7352C17.5551 21.7352 17.5317 21.7586 17.5083 21.7586C17.3914 21.7586 17.251 21.7586 17.1107 21.7586C16.5728 21.782 16.5494 22.6474 17.1107 22.624C17.8124 22.5772 18.4439 22.8345 19.0754 23.0918C19.2157 23.1619 19.356 23.1385 19.473 23.0918C19.9875 23.4192 20.5021 23.6999 21.04 24.0039C21.9288 24.5185 22.7708 25.1032 23.566 25.7347C25.1097 26.9977 26.4896 28.4244 27.8228 29.8979C27.893 29.9681 27.9631 30.0149 28.0567 30.0149C27.893 30.0149 27.7293 30.0616 27.5655 30.1552C26.4429 30.9504 25.3436 31.769 24.2677 32.611C23.3322 33.3361 22.3966 34.0611 21.6248 34.9967C21.5078 35.0435 21.3909 35.1136 21.2739 35.254C19.4964 37.359 17.9527 39.6277 16.7131 42.1069C16.6663 42.2005 16.6429 42.2706 16.6195 42.3642C16.5962 42.3876 16.5728 42.411 16.5494 42.4577C16.1284 43.0658 16.0348 43.7909 15.8945 44.516C15.8711 44.6095 15.8477 44.7031 15.8477 44.7966C15.684 45.241 15.4969 45.6854 15.3566 46.1298C15.1461 46.7379 15.0057 47.346 14.9356 47.9775C14.842 48.0945 14.7718 48.2114 14.7484 48.3517C14.6315 49.1469 14.5146 49.9656 14.4678 50.7608C14.3742 51.2753 14.3041 51.7899 14.3976 52.3278C14.3976 52.7021 14.3976 53.0763 14.421 53.4505C14.421 53.5441 14.421 53.6376 14.4444 53.7312C14.3976 53.7779 14.3508 53.8481 14.3041 53.9183C14.2807 54.0118 14.2339 54.082 14.2105 54.1756C14.1637 54.3627 14.1637 54.5498 14.2105 54.7369C14.2339 54.8071 14.2339 54.9006 14.2573 54.9708C14.2807 55.1111 14.3508 55.2281 14.4444 55.3216C14.4678 55.3684 14.5146 55.4152 14.5613 55.4619C14.5146 55.6958 14.5613 55.9531 14.8186 56.0233C14.9122 56.0467 15.0057 56.0467 15.0993 56.0233C15.1694 56.0467 15.2396 56.0701 15.3332 56.0467C15.4033 56.0233 15.4501 56.0233 15.5203 55.9999H15.5437C15.5904 56.0233 15.6372 56.0467 15.7074 56.0233C15.8009 56.0233 15.9179 55.9999 16.0114 55.9765C16.0816 55.9531 16.1284 55.9297 16.1752 55.9297C16.2219 55.9297 16.2921 55.9063 16.3389 55.8829C16.3623 55.8829 16.3857 55.8829 16.409 55.8829C16.5728 55.8829 16.7131 55.8596 16.8534 55.8128C16.9938 55.8362 17.1575 55.766 17.2978 55.7192C17.368 55.6958 17.4615 55.6724 17.5317 55.6491C17.5785 55.6257 17.6253 55.6023 17.672 55.6023C17.8124 55.5789 17.9293 55.5321 18.0697 55.5087C18.1632 55.5321 18.2568 55.5321 18.3737 55.4853C19.2157 55.2514 19.9875 54.8538 20.7594 54.4562C20.8295 54.4328 20.8997 54.4094 20.9699 54.3627L21.1804 54.2223C21.2272 54.1989 21.2505 54.1756 21.2739 54.1288C21.3207 54.1054 21.3441 54.1054 21.3909 54.082C21.4844 54.0586 21.578 54.0352 21.6949 53.9651C21.7885 53.9183 21.8587 53.8715 21.9288 53.8013C22.3498 53.6376 22.7708 53.4037 23.0749 53.0763C23.0983 53.0529 23.1217 53.0295 23.145 53.0061C23.3322 52.7956 23.4491 52.5617 23.4491 52.2811C23.4491 52.0238 23.3322 51.7197 23.145 51.556C23.0749 51.4858 22.9813 51.4391 22.8878 51.3923C22.8878 50.4099 22.2329 49.4276 21.5312 48.7026C21.461 48.6324 21.3909 48.5856 21.3207 48.5388C21.3909 48.1178 21.4844 47.7202 21.6014 47.3226C21.9288 46.1064 22.5837 45.0539 23.262 44.0014C23.4725 43.8143 23.6596 43.6272 23.8701 43.4167C24.1741 43.8143 24.7121 44.0014 25.2033 43.6973C25.3904 43.5804 25.5775 43.4401 25.7646 43.3231C26.0453 43.8377 26.6768 44.1651 27.2147 43.7675C27.6591 43.4401 28.0801 43.1126 28.4777 42.7852C28.5011 42.7852 28.5011 42.7852 28.5245 42.7618C28.618 42.832 28.7116 42.9021 28.8051 42.9489C28.8987 43.0659 29.0156 43.1828 29.156 43.2763C29.3431 43.3933 29.5302 43.4401 29.7173 43.4167C29.7641 43.4635 29.8343 43.5336 29.881 43.5804C30.1149 43.7441 30.3254 43.8143 30.5125 43.7909C30.6061 43.9078 30.7464 44.0248 30.8867 44.095C31.2142 44.2587 31.6118 44.2821 31.9392 44.0482C32.0796 43.978 32.1731 43.8611 32.2667 43.6973L32.4304 43.4167C32.5006 43.2997 32.524 43.1828 32.5474 43.0659C32.6175 42.9957 32.6877 42.9255 32.7345 42.832L33.1555 41.9666C33.1789 41.9198 33.2022 41.873 33.2256 41.8262C33.2958 41.7093 33.366 41.5924 33.4361 41.4754C33.4361 41.452 33.4595 41.452 33.4595 41.4286C33.4829 41.4052 33.4829 41.3585 33.5063 41.3351L33.5765 41.1714C33.5999 41.1012 33.6232 41.0544 33.6466 40.9842C33.6466 40.9842 33.6466 40.9842 33.67 40.9609C33.787 40.7737 33.9039 40.5866 33.9975 40.3761C34.0209 40.306 34.0442 40.2358 34.0676 40.189C34.091 40.1656 34.1144 40.1189 34.1378 40.0721C34.2781 39.768 34.3951 39.464 34.512 39.1599C34.5354 39.0897 34.5588 39.0196 34.5588 38.9494C34.5822 38.9026 34.6056 38.8325 34.629 38.7857C34.629 38.7623 34.6524 38.7389 34.6524 38.7389C34.6757 38.6687 34.6991 38.5986 34.7459 38.5284C34.7459 38.505 34.7459 38.505 34.7693 38.4816C34.7693 38.4582 34.7927 38.4349 34.7927 38.4115C34.8161 38.3647 34.8161 38.3413 34.8161 38.2945C34.8862 38.1308 34.9564 37.9671 35.0266 37.8034C35.0734 37.663 35.0967 37.5461 35.0967 37.4291C35.0967 37.4057 35.1201 37.4057 35.1201 37.3824C35.1669 37.3122 35.2137 37.2186 35.2371 37.1017C35.2605 37.0549 35.2605 36.9847 35.2605 36.938C35.2839 36.821 35.3072 36.6807 35.354 36.5637C35.3774 36.4936 35.3774 36.4234 35.4008 36.3532V36.3299C35.471 36.096 35.5177 35.8387 35.5645 35.6048C35.5645 35.5814 35.5645 35.5346 35.5645 35.5113L35.6113 35.2774C35.6113 35.254 35.6113 35.2306 35.6347 35.1838C35.6347 35.1604 35.6347 35.137 35.6581 35.1136C35.6581 35.0903 35.6581 35.0902 35.6581 35.0669V35.0435C35.6815 34.8564 35.7049 34.6692 35.7282 34.4821C35.7516 34.295 35.7984 34.0845 35.7984 33.8974C35.7984 33.874 35.7984 33.8506 35.7984 33.8273C35.7984 33.8039 35.7984 33.7805 35.7984 33.7805C35.7984 33.7337 35.7984 33.6869 35.8218 33.6401C35.8218 33.6168 35.8218 33.5934 35.8218 33.57V33.5466C35.8218 33.5232 35.8218 33.4998 35.8218 33.4764C35.8218 33.4296 35.8218 33.3829 35.8218 33.3595C35.8218 33.1958 35.8218 33.032 35.8218 32.8449C35.8218 32.7981 35.8218 32.728 35.7984 32.6812C35.7516 32.4473 35.7516 32.4005 35.7516 32.3538ZM28.7818 29.8511C28.7818 29.8511 28.7584 29.8511 28.7584 29.8745C28.618 29.9447 28.5011 30.0383 28.3608 30.1084C28.2672 30.085 28.1736 30.0616 28.0801 30.0616C28.197 30.0616 28.3374 29.9915 28.4309 29.8979C28.5713 29.9447 28.735 29.9213 28.8519 29.8278C28.8285 29.8044 28.8051 29.8278 28.7818 29.8511ZM28.8753 29.7576C28.9455 29.6874 28.9923 29.6173 29.0156 29.5237C29.039 29.5471 29.0624 29.5939 29.0858 29.6173C29.0156 29.664 28.9455 29.7108 28.8753 29.7576Z" fill="#829FC7"/>
<path d="M64.2627 28.0034C64.2627 27.9332 64.2393 27.8865 64.2159 27.8397C64.1925 27.6058 64.1692 27.3485 64.1224 27.1146C64.1224 27.0445 64.0756 26.9977 64.0522 26.9509C64.0288 26.1323 63.9353 25.3371 63.7482 24.5185C63.7482 24.4717 63.7248 24.4483 63.7248 24.4249V24.4015C63.7949 24.3313 63.8417 24.2612 63.9119 24.191C64.0288 24.0741 64.0288 23.9337 63.982 23.8168C63.982 23.7934 64.0054 23.77 64.0054 23.7466C64.099 23.466 63.7949 23.2555 63.5611 23.3022C63.5377 23.3022 63.4909 23.3256 63.4675 23.3256C63.4675 23.1619 63.3506 22.9982 63.2102 22.9514C63.1868 22.928 63.1401 22.9046 63.1167 22.9046C63.0699 22.8812 62.9997 22.8812 62.9296 22.9046C62.2747 22.9748 61.2923 22.9514 60.8246 23.4893C60.31 23.6998 59.8188 23.9805 59.3043 24.2846C58.4623 24.7757 57.6437 25.3137 56.8484 25.8984C55.2346 27.0678 53.7845 28.4244 52.5215 29.9681C52.2876 30.2487 52.5683 30.6463 52.8256 30.5996C53.7611 31.1843 54.6967 31.769 55.6088 32.4005C56.6146 33.0788 57.4332 33.9909 58.2752 34.8329C59.0938 35.6516 59.889 36.4936 60.6374 37.3589C60.9883 37.7799 61.3859 38.2009 61.6432 38.6921C61.9004 39.2067 61.9238 39.8148 62.1343 40.3527C62.2513 40.6568 62.7658 40.7503 62.836 40.3527C63.0933 39.0195 63.3038 37.663 63.4675 36.3064C63.4675 36.2831 63.4675 36.2363 63.4909 36.2129C63.7949 35.2306 63.9587 34.2014 64.0288 33.1723C64.0288 33.0554 63.9821 32.9618 63.9119 32.9151C63.9587 32.4473 63.9821 31.9795 64.0054 31.5117C64.099 31.4649 64.1458 31.3948 64.1692 31.3012C64.3329 30.1786 64.3563 29.1027 64.2627 28.0034Z" fill="#E68F8B"/>
<path d="M27.3082 29.5939C27.2614 29.5705 27.238 29.5471 27.1912 29.5471C27.1678 29.5003 27.1444 29.4769 27.1211 29.4535C27.1211 29.4067 27.0977 29.3834 27.0977 29.3366C26.7936 28.6583 26.2323 28.2139 25.6242 27.8631C25.133 27.3018 24.5483 26.8106 23.9402 26.3662C23.9168 26.3428 23.8934 26.3428 23.87 26.3428C23.8466 26.3194 23.8232 26.296 23.7998 26.2493C23.7531 26.2259 23.7297 26.1791 23.6829 26.1557C23.5426 26.0388 23.4022 25.9218 23.2385 25.8049C23.1917 25.7815 23.1449 25.7581 23.0982 25.7581C22.607 25.2903 22.0223 24.9395 21.4376 24.5886C20.8061 24.2144 20.0342 23.5361 19.2624 23.466C18.5373 22.8579 17.5784 22.5772 16.5727 22.9748C16.2686 23.0918 16.2686 23.4894 16.4557 23.6297C16.3856 23.8168 16.3622 24.0273 16.3388 24.1676C16.1283 25.2435 16.0581 26.3896 15.9412 27.4655C15.8476 28.3776 16.0113 29.3366 15.9646 30.2487C15.8944 30.5528 15.8476 30.8802 15.8242 31.1843C15.8008 31.3246 15.871 31.4182 15.9646 31.4884C15.9178 31.6287 15.8944 31.769 15.8476 31.9094C15.7541 32.19 16.0113 32.3771 16.2218 32.3537C16.1751 32.4941 16.1517 32.6344 16.1049 32.7747C16.0581 32.9385 16.1049 33.0554 16.1985 33.149C16.1985 33.7571 16.2218 34.3418 16.2686 34.9499C16.3154 35.8621 16.409 36.7742 16.5259 37.6864C16.5493 37.8501 16.6662 37.9203 16.8066 37.9437C16.8066 38.084 16.9001 38.1776 16.9937 38.2243C16.9235 38.4582 16.83 38.6921 16.7598 38.926C16.6662 39.1833 16.8767 39.3704 17.0872 39.3704C17.0171 39.5341 16.9469 39.6745 16.8767 39.8382C16.6896 40.2592 17.2977 40.6334 17.5082 40.2124C18.2333 38.7857 19.0753 37.4525 20.0342 36.1895C20.1278 36.1895 20.2447 36.1427 20.3149 36.0258C21.8819 33.9676 23.8466 32.2602 26.0919 30.9972C26.2089 30.927 26.2557 30.8335 26.2791 30.7399L26.3024 30.7165C26.4194 30.7399 26.5597 30.7165 26.6533 30.623C26.817 30.5996 26.9573 30.506 26.9807 30.3423C27.0275 30.3189 27.0743 30.3189 27.1211 30.2721C27.4485 30.2487 27.6356 29.781 27.3082 29.5939Z" fill="#E68F8B"/>
<path d="M17.2276 40.4697C17.1575 40.4697 17.1107 40.4463 17.0405 40.4229C16.83 40.3294 16.6897 40.0721 16.8066 39.8148C16.8534 39.6979 16.9236 39.5576 16.9938 39.4406C16.8768 39.4172 16.7833 39.347 16.7365 39.2769C16.6897 39.2067 16.6429 39.0898 16.7131 38.926C16.7833 38.7389 16.8534 38.5284 16.947 38.2712C16.8534 38.2244 16.7833 38.1308 16.7599 38.0139C16.5961 37.9671 16.5026 37.8735 16.4792 37.7098C16.3389 36.7977 16.2687 35.8855 16.2219 34.9733C16.1751 34.3418 16.1518 33.7571 16.1518 33.1958C16.0348 33.1022 16.0114 32.9385 16.0582 32.7748C16.105 32.6578 16.1284 32.5409 16.1518 32.4239C16.0348 32.4006 15.9179 32.3538 15.8477 32.2602C15.7775 32.1667 15.7541 32.0263 15.8009 31.886C15.8243 31.7691 15.8711 31.6521 15.9179 31.5118C15.8243 31.4416 15.7775 31.3247 15.7775 31.1843C15.8009 30.8569 15.8711 30.5528 15.9179 30.2254C15.9413 29.8044 15.9179 29.3366 15.8945 28.9156C15.8711 28.4245 15.8477 27.9333 15.8945 27.4421C15.9179 27.2784 15.9179 27.1381 15.9413 26.9743C16.0348 26.0388 16.105 25.0565 16.2921 24.1443C16.2921 24.1209 16.3155 24.0741 16.3155 24.0507C16.3389 23.9104 16.3623 23.7701 16.409 23.6297C16.3155 23.5362 16.2687 23.3725 16.2921 23.2321C16.3155 23.0684 16.4324 22.9515 16.5728 22.9047C17.5083 22.5539 18.4673 22.7176 19.3093 23.3958C19.894 23.4426 20.4787 23.8402 20.9933 24.1911C21.157 24.308 21.3207 24.425 21.4844 24.5185H21.5078C22.0691 24.8693 22.6539 25.2202 23.145 25.6646C23.1918 25.6646 23.2386 25.688 23.2854 25.7347C23.4491 25.8517 23.5894 25.9452 23.7297 26.0856L23.8467 26.1791C23.8701 26.2025 23.8935 26.2259 23.9402 26.2727C23.9636 26.2727 23.987 26.2961 23.987 26.2961C24.6419 26.7638 25.2032 27.255 25.6944 27.793C26.4429 28.214 26.934 28.7051 27.1913 29.2898C27.2147 29.3132 27.2147 29.36 27.2147 29.4068C27.2381 29.4302 27.2615 29.4536 27.2849 29.477C27.3316 29.5003 27.355 29.5003 27.4018 29.5237C27.5655 29.6173 27.6357 29.781 27.5889 29.9681C27.5421 30.1552 27.4018 30.2956 27.2381 30.319C27.2147 30.3423 27.1679 30.3657 27.1211 30.3657C27.0744 30.5295 26.9106 30.6464 26.7703 30.6698C26.6767 30.7633 26.5598 30.7867 26.4195 30.7633C26.3961 30.8803 26.3259 30.9738 26.209 31.044C23.9402 32.3304 21.999 34.0144 20.4553 36.0492C20.3851 36.1428 20.2682 36.2129 20.1513 36.2363C19.1923 37.4759 18.3503 38.8091 17.6486 40.2358C17.4849 40.3995 17.3446 40.4697 17.2276 40.4697ZM16.2921 32.307L16.2687 32.4239C16.2219 32.5643 16.1985 32.6812 16.1518 32.8216C16.105 32.9385 16.1518 33.0554 16.2219 33.1256L16.2453 33.149V33.1724C16.2453 33.7337 16.2687 34.3184 16.3155 34.9499C16.3623 35.8621 16.4558 36.7743 16.5728 37.6631C16.5961 37.8268 16.7365 37.8502 16.8066 37.8735H16.8534V37.9203C16.8534 38.0607 16.947 38.1308 17.0171 38.1542L17.0639 38.1776L17.0405 38.2244C16.947 38.505 16.8768 38.7155 16.8066 38.926C16.7833 39.0196 16.7833 39.0898 16.83 39.1599C16.8768 39.2301 16.9704 39.2769 17.0873 39.3003H17.1809L17.1107 39.4406C17.0405 39.5809 16.9938 39.6979 16.9236 39.8382C16.83 40.0253 16.947 40.2124 17.0873 40.2826C17.2043 40.3294 17.3446 40.3294 17.4381 40.1657C18.1632 38.7389 19.0052 37.3824 19.9641 36.1428L19.9875 36.1194H20.0109C20.0811 36.1194 20.1746 36.096 20.2682 35.9791C21.8352 33.9208 23.7765 32.2134 26.0686 30.9271C26.1856 30.8569 26.209 30.7633 26.209 30.7166V30.6932L26.2324 30.6698C26.2324 30.6698 26.2324 30.6698 26.2557 30.6464L26.2791 30.623H26.3025C26.4195 30.6464 26.5364 30.623 26.6066 30.5528L26.63 30.5294H26.6534C26.7703 30.5061 26.9106 30.4359 26.934 30.2956V30.2488H26.9808C27.0276 30.2488 27.0744 30.2254 27.0977 30.202H27.1211H27.1445C27.2615 30.1786 27.3784 30.0851 27.4018 29.9447C27.4252 29.8746 27.4252 29.7342 27.2615 29.6407C27.2147 29.6173 27.1913 29.5939 27.1445 29.5939H27.1211V29.5705C27.0977 29.5471 27.0744 29.5003 27.051 29.477L27.0276 29.4536V29.4302C27.0276 29.4068 27.0276 29.36 27.0042 29.3366C26.7469 28.7519 26.2791 28.3075 25.5541 27.8865L25.5307 27.8631C25.0629 27.3252 24.5016 26.834 23.8467 26.3896C23.8233 26.3662 23.8233 26.3662 23.7999 26.3662H23.7765V26.3428C23.7531 26.3195 23.7297 26.2961 23.7064 26.2727L23.5894 26.1791C23.4491 26.0622 23.3087 25.9452 23.145 25.8283C23.1216 25.8049 23.0749 25.7815 23.0515 25.7815H23.0281L23.0047 25.7581C22.5369 25.2903 21.9522 24.9395 21.3675 24.6121H21.3441C21.1804 24.5185 21.0166 24.4016 20.8529 24.2846C20.3384 23.9338 19.777 23.5596 19.1923 23.5128H19.1689L19.1455 23.4894C18.3503 22.8345 17.4148 22.6708 16.526 23.0216C16.3856 23.0684 16.3389 23.2087 16.3155 23.2555C16.2921 23.3725 16.3389 23.5128 16.409 23.583L16.4324 23.6063L16.409 23.6531C16.3623 23.7935 16.3389 23.9572 16.3155 24.0975C16.3155 24.1443 16.2921 24.1677 16.2921 24.1911C16.105 25.1032 16.0348 26.0856 15.9413 27.0211C15.9179 27.1848 15.9179 27.3486 15.8945 27.4889C15.8477 27.9567 15.8711 28.4478 15.8945 28.939C15.9179 29.3834 15.9413 29.8278 15.9179 30.2722C15.8477 30.5762 15.8009 30.9037 15.7775 31.2077C15.7541 31.3481 15.8243 31.4182 15.8945 31.4416L15.9413 31.465V31.5118C15.8945 31.6755 15.8711 31.8158 15.8243 31.9328C15.8009 32.0263 15.8009 32.1199 15.8711 32.1901C15.9413 32.2602 16.0348 32.307 16.1518 32.307H16.2921Z" fill="#E68F8B"/>
<path d="M44.195 57.8009C44.1483 57.5202 43.6805 57.4266 43.5869 57.7775C43.3998 58.4324 43.1659 59.0639 42.8619 59.6486C42.8385 59.672 42.8385 59.672 42.8151 59.6954C42.628 59.9292 42.4409 60.1865 42.2772 60.4204C42.3006 59.6252 42.3006 58.83 42.3006 58.0581C42.3239 58.0114 42.3473 57.9646 42.3473 57.9178C42.3473 57.7073 42.3473 57.4734 42.3707 57.2629C42.3941 57.1927 42.3707 57.0992 42.3239 57.029C42.3473 57.0056 42.3473 57.0056 42.3707 56.9822C42.4175 56.9355 42.3473 56.8419 42.2772 56.8887C42.2538 56.9121 42.2304 56.9355 42.207 56.9589C42.207 56.9589 42.207 56.9589 42.1836 56.9589C42.1602 56.9589 42.1602 56.9589 42.1368 56.9589C42.1134 56.9355 42.0667 56.9355 42.0199 56.9355H36.9913C36.9445 56.9355 36.9211 56.9355 36.8743 56.9589C36.851 56.9589 36.8042 56.9589 36.7808 56.9822L36.7574 56.9589C36.7106 56.8887 36.6171 56.9822 36.6638 57.0524L36.6872 57.0758C36.6405 57.146 36.6405 57.2161 36.6638 57.2863C36.6405 57.3097 36.6405 57.3565 36.6405 57.4032C36.7106 58.3856 36.8276 59.3679 36.8276 60.3502C36.7808 60.3502 36.734 60.3502 36.6872 60.3502C36.6872 60.3269 36.6638 60.3035 36.6638 60.2801C36.6171 60.1865 36.5469 60.1397 36.4767 60.093C36.3598 59.8825 36.2195 59.672 36.1025 59.4615C35.9622 59.0872 35.7985 58.713 35.6113 58.3622C35.6113 58.3388 35.6113 58.3154 35.6113 58.292C35.5646 58.0581 35.4944 57.871 35.4008 57.6605C35.4008 57.6605 35.4008 57.6371 35.3775 57.6371C35.3541 57.567 35.3073 57.567 35.2605 57.5904C35.1903 57.5904 35.1202 57.6371 35.1202 57.7073C35.0968 57.7073 35.0734 57.6839 35.0266 57.6839C35.0032 57.6839 34.9565 57.6839 34.9331 57.7073C34.8863 57.6605 34.8395 57.6605 34.7927 57.6839C34.5355 57.871 33.9975 57.8009 33.9273 58.1985C33.8806 58.409 33.9975 58.713 34.0443 58.9001C34.1145 59.2744 34.1846 59.6252 34.2548 59.9994C34.2782 60.0696 34.325 60.093 34.3717 60.093C34.8161 61.8705 35.2839 63.6715 35.9622 65.3555C36.3364 66.291 37.0147 67.0628 37.8567 67.554C37.9035 67.6242 37.9736 67.7177 38.0672 67.7645C38.1607 67.8113 38.2309 67.8581 38.3245 67.9048C38.418 67.9516 38.4882 67.975 38.5817 67.975C38.7221 68.0218 38.839 68.0686 38.9793 68.092C39.1431 68.1153 39.2834 68.1153 39.4471 68.092C39.7512 68.2557 40.1956 68.2089 40.4294 67.9984C40.4528 67.9984 40.4996 67.9984 40.523 67.975C41.0843 67.7879 41.5053 67.4605 41.8328 67.0161C42.0199 67.0161 42.1836 66.9225 42.3006 66.712C42.4175 66.5249 42.4409 66.3378 42.4409 66.1507C43.0256 65.449 43.5168 64.7006 43.891 63.7884C44.5693 62.1278 44.8499 60.2801 45.0838 58.5025C45.2242 57.9178 44.5459 57.567 44.195 57.8009Z" fill="#912819"/>
<path d="M44.1015 63.2738C42.4877 59.2977 36.5469 59.3913 35.0266 62.8295C35.1202 64.0223 36.9913 67.0628 37.576 67.4838C38.1607 67.9048 39.4705 68.3726 40.3125 68.1387C42.6748 67.4604 43.9378 63.765 44.1015 63.2738Z" fill="#DD6E5D"/>
<path d="M55.024 31.9562C55.4684 31.0674 60.5672 25.992 61.8536 25.2904C62.4149 24.9863 62.9061 24.7524 62.9763 25.8517C63.2569 30.623 61.2689 37.5695 61.0818 38.201C59.4212 35.371 55.562 32.3304 55.024 31.9562Z" fill="#F9AEAA"/>
<path d="M25.0162 31.9562C24.5718 31.0674 19.473 25.992 18.1866 25.2904C17.6253 24.9863 17.1341 24.7524 17.064 25.8517C16.7833 30.623 18.7713 37.5695 18.9585 38.201C20.6425 35.371 24.4782 32.3304 25.0162 31.9562Z" fill="#F9AEAA"/>
<path d="M17.5317 39.6277C17.1107 38.4115 17.0171 37.1017 16.83 35.8153L16.3155 31.9796C16.2921 31.7457 15.9178 31.7457 15.9412 31.9796C16.1283 33.3361 16.2921 34.6927 16.4792 36.0726C16.6429 37.3122 16.7598 38.5518 17.1575 39.7447C17.251 39.9552 17.6018 39.8616 17.5317 39.6277Z" fill="#E68F8B"/>
<path d="M16.3389 26.2259C16.105 26.2259 16.105 26.6001 16.3389 26.6001C16.5728 26.5767 16.5728 26.2259 16.3389 26.2259Z" fill="#E68F8B"/>
<path d="M16.0114 27.1147C15.9413 27.5824 15.9179 28.0502 15.9413 28.518C15.9413 28.7519 16.3155 28.7519 16.3155 28.518C16.3155 28.0502 16.3389 27.5824 16.3857 27.1147C16.409 26.8808 16.0582 26.8808 16.0114 27.1147Z" fill="#E68F8B"/>
<path d="M27.4251 29.7342C25.975 27.9566 24.2677 26.3896 22.3498 25.1032C21.5545 24.5886 20.7359 24.0975 19.8939 23.6765C19.5899 23.5128 19.2858 23.349 18.9818 23.2321C18.4204 22.9748 17.8357 22.7643 17.2276 22.7877C17.1341 22.7643 17.0405 22.7643 16.9469 22.7409C16.8066 22.7175 16.7131 22.7877 16.6897 22.8813C16.6195 22.9046 16.5259 22.928 16.4558 22.9748C16.1049 23.1385 16.409 23.6765 16.7598 23.5128C16.9002 23.4426 17.0405 23.3958 17.2042 23.3958C17.7889 23.466 18.3737 23.5829 18.935 23.8168C19.1221 23.9104 19.3092 24.0039 19.4963 24.0975C19.777 24.2612 20.0343 24.4483 20.3149 24.612C21.2739 25.2435 22.2328 25.8984 23.1918 26.5533C23.2619 26.6001 23.3555 26.6235 23.4257 26.6001C24.7588 27.6526 25.9516 28.8454 27.0275 30.1318C27.238 30.4826 27.659 30.0382 27.4251 29.7342Z" fill="#E68F8B"/>
<path d="M63.0932 41.031L62.3915 40.7971C64.8707 33.1724 63.7948 24.9161 63.4908 23.5829C63.2569 22.6474 62.9996 22.1328 62.5786 21.8989C62.0641 21.6183 61.2454 21.7352 59.7018 22.2732C56.3104 23.4894 51.235 26.1323 48.4517 28.6349L47.9606 28.097C50.8374 25.4774 55.9128 22.8345 59.4445 21.5715C60.918 21.0335 62.0874 20.7763 62.906 21.244C63.5142 21.5715 63.8884 22.2264 64.1691 23.3958C64.5901 25.0564 65.5958 33.2893 63.0932 41.031Z" fill="black"/>
<path d="M52.4279 30.2487L52.077 30.0148C53.8078 27.3719 59.3977 23.0684 62.2746 22.5304C62.9061 22.4135 63.3972 22.4836 63.7247 22.7175L63.4674 23.0683C63.2335 22.9046 62.8593 22.8578 62.3447 22.9514C59.6082 23.4426 54.0885 27.7227 52.4279 30.2487Z" fill="black"/>
<path d="M16.9236 40.7503C14.4678 33.149 15.4969 25.15 15.8945 23.4426C16.1751 22.2731 16.5728 21.6183 17.1575 21.2908C17.9995 20.8464 19.1455 21.1037 20.619 21.6183C24.1507 22.8812 29.2495 25.5242 32.103 28.1437L31.6118 28.6817C28.8519 26.1557 23.7531 23.5127 20.3617 22.3199C18.8415 21.782 17.9995 21.665 17.4849 21.9457C17.0873 22.1562 16.8066 22.6707 16.5728 23.6297C16.1751 25.3137 15.1694 33.1256 17.5785 40.5398L16.9236 40.7503Z" fill="black"/>
<path d="M27.6824 30.2487C26.0218 27.7227 20.5021 23.4426 17.7656 22.9514C17.251 22.8578 16.8768 22.9046 16.6429 23.0683L16.3856 22.7175C16.7131 22.4836 17.2042 22.4135 17.8357 22.5304C20.7359 23.0684 26.3025 27.3719 28.0333 30.0148L27.6824 30.2487Z" fill="black"/>
<path d="M39.9382 78.6403C25.6243 78.6403 14 66.9926 14 52.702C14 38.388 25.6477 26.7638 39.9382 26.7638C54.2288 26.7638 65.8765 38.4114 65.8765 52.702C65.8765 67.016 54.2288 78.6403 39.9382 78.6403ZM39.9382 27.3251C25.9283 27.3251 14.5379 38.7155 14.5379 52.702C14.5379 66.6885 25.9283 78.0789 39.9149 78.0789C53.9248 78.0789 65.2918 66.6885 65.2918 52.702C65.2918 38.7155 53.9248 27.3251 39.9382 27.3251Z" fill="black"/>
<path d="M14.8186 56.0701C14.7017 56.0701 14.5847 56.0701 14.4678 56.0701V55.9531C16.947 56.0467 19.894 55.0409 22.9579 53.0295C25.9049 51.0882 28.7584 48.3283 30.9803 45.241C35.4008 39.1131 36.8275 32.6578 34.9096 27.559L35.0266 27.5123C36.9679 32.6578 35.5411 39.1365 31.0972 45.3112C26.4663 51.6963 19.8238 56.0701 14.8186 56.0701Z" fill="black"/>
<path d="M64.8708 56.0701C59.8422 56.0701 53.2231 51.6964 48.6155 45.2878C44.1716 39.1132 42.7215 32.6344 44.6862 27.4889L44.8031 27.5357C42.8619 32.6344 44.2886 39.0898 48.7325 45.2176C50.9544 48.305 53.8078 51.0649 56.7548 53.0061C59.8188 55.0176 62.7424 56.0233 65.245 55.9297V56.0467C65.1047 56.0701 64.9877 56.0701 64.8708 56.0701Z" fill="black"/>
<path d="M27.4019 54.5965C30.7991 54.5965 33.5532 51.8425 33.5532 48.4453C33.5532 45.048 30.7991 42.294 27.4019 42.294C24.0046 42.294 21.2506 45.048 21.2506 48.4453C21.2506 51.8425 24.0046 54.5965 27.4019 54.5965Z" fill="#F0C401"/>
<path d="M52.1706 54.5965C55.5678 54.5965 58.3218 51.8425 58.3218 48.4453C58.3218 45.048 55.5678 42.294 52.1706 42.294C48.7733 42.294 46.0193 45.048 46.0193 48.4453C46.0193 51.8425 48.7733 54.5965 52.1706 54.5965Z" fill="#F0C401"/>
<path d="M52.1472 54.4563C52.0303 54.4563 51.9133 54.4563 51.7964 54.4563C49.3406 54.3159 47.3057 52.7489 46.4871 50.3398C46.2766 49.7551 46.6041 49.1236 47.1654 48.9131C47.7501 48.7026 48.3816 49.0301 48.5921 49.5914C49.1301 51.1351 50.3697 52.1174 51.9367 52.2109C53.5973 52.3045 55.1176 51.2988 55.9362 49.6148C56.1935 49.0534 56.8718 48.8196 57.4331 49.1002C57.9944 49.3575 58.2283 50.0358 57.9477 50.5971C56.8016 52.9828 54.603 54.4563 52.1472 54.4563Z" fill="white"/>
<path d="M27.355 54.5264C25.4371 54.5264 23.683 53.5674 22.5369 51.8834C22.2095 51.4157 22.3264 50.7608 22.8176 50.4333C23.2854 50.1059 23.9403 50.2228 24.2677 50.714C25.0395 51.8367 26.1622 52.4682 27.4252 52.4448C28.8285 52.4214 30.2085 51.6028 31.0972 50.2228C31.4013 49.7317 32.0562 49.5913 32.5474 49.9188C33.0385 50.2228 33.1789 50.8777 32.8514 51.3689C31.5884 53.3335 29.5536 54.5264 27.4486 54.5498C27.4018 54.5264 27.3784 54.5264 27.355 54.5264Z" fill="white"/>
<path d="M55.8194 46.0362C56.3878 46.0362 56.8485 45.5755 56.8485 45.0071C56.8485 44.4387 56.3878 43.978 55.8194 43.978C55.251 43.978 54.7903 44.4387 54.7903 45.0071C54.7903 45.5755 55.251 46.0362 55.8194 46.0362Z" fill="white"/>
<path d="M30.8166 47.0186C31.4495 47.0186 31.9626 46.5055 31.9626 45.8725C31.9626 45.2396 31.4495 44.7265 30.8166 44.7265C30.1836 44.7265 29.6705 45.2396 29.6705 45.8725C29.6705 46.5055 30.1836 47.0186 30.8166 47.0186Z" fill="white"/>
<path d="M27.4019 54.7836C23.9169 54.7836 21.0635 51.9302 21.0635 48.4453C21.0635 44.9603 23.9169 42.1069 27.4019 42.1069C30.8868 42.1069 33.7402 44.9603 33.7402 48.4453C33.7402 51.9302 30.9102 54.7836 27.4019 54.7836ZM27.4019 42.4811C24.104 42.4811 21.4377 45.1474 21.4377 48.4453C21.4377 51.7431 24.104 54.4094 27.4019 54.4094C30.6997 54.4094 33.366 51.7431 33.366 48.4453C33.3894 45.1474 30.6997 42.4811 27.4019 42.4811Z" fill="black"/>
<path d="M52.1705 54.7836C48.6856 54.7836 45.8322 51.9302 45.8322 48.4453C45.8322 44.9603 48.6856 42.1069 52.1705 42.1069C55.6555 42.1069 58.5089 44.9603 58.5089 48.4453C58.5089 51.9302 55.6555 54.7836 52.1705 54.7836ZM52.1705 42.4811C48.8727 42.4811 46.2064 45.1474 46.2064 48.4453C46.2064 51.7431 48.8727 54.4094 52.1705 54.4094C55.4684 54.4094 58.1347 51.7431 58.1347 48.4453C58.1347 45.1474 55.4684 42.4811 52.1705 42.4811Z" fill="black"/>
<path d="M52.2876 52.2576C54.4319 52.2576 56.1701 50.5193 56.1701 48.3751C56.1701 46.2308 54.4319 44.4925 52.2876 44.4925C50.1433 44.4925 48.405 46.2308 48.405 48.3751C48.405 50.5193 50.1433 52.2576 52.2876 52.2576Z" fill="black"/>
<path d="M63.455 59.1803C63.7185 57.5742 62.2478 55.9959 60.17 55.655C58.0923 55.3141 56.1944 56.3398 55.9309 57.9459C55.6673 59.552 57.1381 61.1303 59.2158 61.4712C61.2935 61.8121 63.1915 60.7864 63.455 59.1803Z" fill="#E68E8A"/>
<path d="M60.0292 61.6132C59.772 61.6132 59.4913 61.5899 59.234 61.5431C58.2049 61.3794 57.2928 60.9116 56.6613 60.2333C56.0298 59.555 55.7491 58.7364 55.866 57.9178C56.0064 57.1226 56.5209 56.4209 57.3395 55.9765C58.1581 55.5321 59.1639 55.3918 60.193 55.5555C62.3214 55.9064 63.8182 57.5202 63.561 59.1808C63.3271 60.6309 61.8068 61.6132 60.0292 61.6132ZM59.3744 55.6725C58.6727 55.6725 57.9944 55.8362 57.4097 56.1403C56.6379 56.5612 56.1467 57.1928 56.0298 57.9412C55.9128 58.6896 56.1701 59.4615 56.7782 60.093C57.3863 60.7479 58.2517 61.1922 59.234 61.356C61.2455 61.6834 63.1166 60.7011 63.3739 59.134C63.6311 57.5904 62.181 56.0467 60.1696 55.7193C59.9123 55.6959 59.6316 55.6725 59.3744 55.6725Z" fill="black"/>
<path d="M21.0936 61.4562C23.1713 61.1153 24.6421 59.537 24.3786 57.9309C24.1151 56.3248 22.2171 55.2991 20.1394 55.64C18.0617 55.9809 16.5909 57.5592 16.8544 59.1653C17.1179 60.7714 19.0159 61.7971 21.0936 61.4562Z" fill="#E68E8A"/>
<path d="M20.2917 61.6132C18.5141 61.6132 16.9938 60.6309 16.76 59.1808C16.4793 57.5202 17.9996 55.9063 20.1279 55.5555C21.1571 55.3918 22.1628 55.5321 22.9814 55.9765C23.8 56.4209 24.3379 57.0992 24.4549 57.9178C24.5952 58.713 24.3146 59.5316 23.6597 60.2333C23.0282 60.9115 22.116 61.3793 21.0869 61.543C20.8296 61.5898 20.5723 61.6132 20.2917 61.6132ZM16.9471 59.1574C17.2043 60.701 19.0521 61.7068 21.0869 61.3793C22.0692 61.2156 22.9346 60.7712 23.5427 60.1163C24.1508 59.4614 24.4081 58.713 24.2912 57.9645C24.1742 57.2161 23.6831 56.5846 22.9112 56.1636C22.1394 55.7426 21.1571 55.6023 20.1747 55.766C18.1399 56.0701 16.6898 57.6137 16.9471 59.1574Z" fill="black"/>
<path d="M23.1217 48.7727C24.3613 47.9541 27.4019 45.8491 31.4949 47.6267C31.8224 47.767 31.9393 48.3283 31.2611 48.2815C28.7117 48.1178 26.1623 48.4219 24.2444 50.4567C24.0573 50.6672 23.6363 50.8309 23.6597 50.1527C23.6597 49.8252 23.7065 49.4978 23.7766 49.2639C23.5427 49.1703 23.379 49.1469 23.0983 49.1002C22.9112 49.0768 22.958 48.8897 23.1217 48.7727Z" fill="black"/>
<path d="M39.5875 54.1288C38.7221 53.7312 37.9502 52.6787 37.8099 52.2811C37.7164 52.0238 37.5994 51.5794 38.3712 51.4625C39.0495 51.3689 40.0319 51.4157 40.6867 51.4625C41.3182 51.5327 41.4586 51.7665 41.2013 52.4448C40.9206 53.0295 40.3125 53.7312 39.5875 54.1288Z" fill="black"/>
<path d="M39.5173 68.4428C35.9154 68.4428 34.5121 62.081 33.7636 58.6429C33.7168 58.409 33.6701 58.1751 33.6233 57.9646L33.9741 57.8944C34.0209 58.1049 34.0677 58.3388 34.1145 58.5727C34.7927 61.66 36.1961 68.0686 39.4939 68.0686C43.3063 68.0686 45.0371 59.9994 45.0371 57.9178H45.4113C45.4113 60.3736 43.5869 68.4428 39.5173 68.4428Z" fill="black"/>
<path d="M45.1773 58.1049C44.9201 58.0347 44.8031 57.9879 44.7096 57.9645C44.5926 57.9177 44.4289 57.871 44.4991 57.7073C44.5458 57.5435 44.7096 57.5903 44.8499 57.6137C44.9435 57.6371 45.0838 57.6839 45.2943 57.754L45.1773 58.1049Z" fill="black"/>
<path d="M35.4242 57.3798C35.7516 58.5492 36.0791 59.3678 36.7574 60.3736C36.734 58.9702 36.6638 57.5903 36.6872 56.8886C36.6638 56.608 35.4242 57.3798 35.4242 57.3798Z" fill="white"/>
<path d="M36.734 60.4672C36.7106 60.4672 36.6639 60.4438 36.6639 60.4204C35.9622 59.3445 35.6347 58.5025 35.3307 57.4032C35.3307 57.3565 35.3307 57.3097 35.3775 57.3097C35.7985 57.0524 36.5001 56.6548 36.6872 56.7717C36.734 56.7951 36.7574 56.8419 36.7574 56.9121C36.7574 57.2863 36.7574 57.871 36.7808 58.5493C36.8042 59.1106 36.8276 59.7655 36.8276 60.397C36.8276 60.4438 36.8042 60.4672 36.7574 60.4906C36.7574 60.4672 36.7574 60.4672 36.734 60.4672ZM35.5178 57.4266C35.7985 58.3856 36.0791 59.134 36.6405 60.0462C36.6405 59.5082 36.6171 58.9937 36.5937 58.5259C36.5703 57.871 36.5469 57.3097 36.5703 56.9121C36.43 56.9355 35.9388 57.1694 35.5178 57.4266Z" fill="black"/>
<path d="M43.6571 57.3798C43.3297 58.5492 43.0023 59.3678 42.324 60.3736C42.3474 58.9702 42.4175 57.5903 42.3941 56.8886C42.3941 56.608 43.6571 57.3798 43.6571 57.3798Z" fill="white"/>
<path d="M42.3239 60.4672H42.3005C42.2537 60.4438 42.2303 60.4204 42.2303 60.3736C42.2303 59.7421 42.2537 59.0872 42.2771 58.5259C42.3005 57.8476 42.3239 57.2863 42.3005 56.9121C42.3005 56.8653 42.3239 56.8185 42.3707 56.7717C42.5578 56.6548 43.2828 57.0524 43.6805 57.3097C43.7272 57.3331 43.7272 57.3799 43.7272 57.4032C43.4232 58.5025 43.0957 59.3445 42.3941 60.4204C42.3941 60.4438 42.3707 60.4672 42.3239 60.4672ZM42.4876 56.9121C42.4876 57.2863 42.4876 57.8476 42.4642 58.5025C42.4408 58.9703 42.4409 59.4849 42.4175 60.0228C42.9788 59.1106 43.2595 58.3388 43.5401 57.4032C43.1191 57.1694 42.6513 56.9355 42.4876 56.9121Z" fill="black"/>
<path d="M30.3722 58.5961C30.2318 58.5961 30.1149 58.5961 29.998 58.5961C29.3665 58.5727 28.2438 58.4324 27.893 57.871C27.5655 57.3799 27.6825 56.8653 28.1502 56.4677C28.2204 56.3975 28.3373 56.4209 28.4075 56.4911C28.4777 56.5613 28.4543 56.6782 28.3841 56.7484C28.1502 56.9355 27.9397 57.2629 28.197 57.6839C28.3841 57.988 29.0624 58.1985 30.0213 58.2219C32.3135 58.3388 36.7807 57.4267 39.0494 54.5732C39.1898 54.4095 39.3067 53.8715 39.3067 53.5441C39.3067 53.4505 39.4003 53.357 39.4938 53.357C39.5874 53.357 39.6809 53.4505 39.6809 53.5441C39.6809 53.8949 39.564 54.5498 39.3535 54.8071C37.0848 57.6138 32.8046 58.5961 30.3722 58.5961Z" fill="black"/>
<path d="M48.709 58.5961C46.2532 58.5961 41.9964 57.6138 39.7745 54.8071C39.564 54.5498 39.447 53.8949 39.447 53.5441C39.447 53.4505 39.5406 53.357 39.6341 53.357C39.7277 53.357 39.8212 53.4505 39.8212 53.5441C39.8212 53.8715 39.9382 54.4095 40.0785 54.5732C42.3472 57.4267 46.8145 58.3154 49.1066 58.2219C50.0656 58.1751 50.7438 57.9646 50.931 57.6839C51.2116 57.2629 50.9777 56.9589 50.7438 56.7484C50.6737 56.6782 50.6503 56.5613 50.7205 56.4911C50.7906 56.4209 50.9076 56.3975 50.9777 56.4677C51.4455 56.8653 51.5624 57.3799 51.235 57.871C50.8842 58.4324 49.7615 58.5493 49.13 58.5961C48.9663 58.5961 48.8493 58.5961 48.709 58.5961Z" fill="black"/>
<path d="M42.3239 56.9588H36.6638C36.6404 56.9588 36.5936 56.9354 36.5936 56.8886C36.5936 56.8418 36.617 56.8185 36.6638 56.8185H42.3239C42.3473 56.8185 42.3941 56.8418 42.3941 56.8886C42.3941 56.9354 42.3707 56.9588 42.3239 56.9588Z" fill="black"/>
<path d="M16.8763 92.6736H22.3727V100.181C21.4839 100.485 20.6185 100.673 19.7765 100.813C18.9345 100.953 18.0458 101 17.0868 101C14.8181 101 13.0873 100.322 11.8477 98.9886C10.6315 97.6554 10 95.7609 10 93.3285C10 90.9194 10.7017 89.0483 12.0816 87.6917C13.4615 86.3352 15.356 85.6569 17.7885 85.6569C19.3555 85.6569 20.829 85.961 22.2324 86.5457L21.367 88.5805C20.1508 88.0192 18.9345 87.7385 17.7417 87.7385C16.1513 87.7385 14.8883 88.2297 13.9527 89.2354C13.0172 90.2411 12.5728 91.5977 12.5728 93.3519C12.5728 95.1762 12.9938 96.5561 13.8124 97.5151C14.6544 98.474 15.8472 98.9418 17.4143 98.9418C18.2095 98.9418 19.0515 98.8482 19.9403 98.6377V94.7786H16.8763V92.6736ZM34.3946 100.79H25.9512V85.8674H34.3946V87.9256H28.3836V91.9953H34.0203V94.0301H28.3836V98.7079H34.3946V100.79ZM50.0651 100.79H47.0713L39.7272 88.8846H39.6571L39.7038 89.5395C39.7974 90.8025 39.8442 91.9719 39.8442 93.001V100.766H37.6222V85.844H40.5926L47.9133 97.6788H47.9835C47.9601 97.5151 47.9367 96.9537 47.9133 95.9714C47.8666 94.9891 47.8432 94.2172 47.8432 93.6793V85.8674H50.0885V100.79H50.0651ZM65.4082 100.79H62.5781L57.9004 94.0301L56.4503 95.1996V100.79H54.0178V85.8674H56.4503V92.9776C57.1285 92.159 57.7834 91.3638 58.4383 90.6154L62.4612 85.844H65.2445C62.6249 88.908 60.7772 91.0831 59.6311 92.3929L65.4082 100.79ZM67.3729 100.79V85.8674H69.8053V100.79H67.3729Z" fill="url(#paint0_linear_201_6)"/>
<defs>
<linearGradient id="paint0_linear_201_6" x1="31.4444" y1="76.2702" x2="51.654" y2="111.274" gradientUnits="userSpaceOnUse">
<stop offset="0.1926" stop-color="#B63232"/>
<stop offset="0.7544" stop-color="#D27167"/>
</linearGradient>
</defs>
</svg>
