<svg width="52" height="58" viewBox="0 0 52 58" fill="none" xmlns="http://www.w3.org/2000/svg">
<path d="M25.9382 57.3596C40.1085 57.3596 51.5958 45.8724 51.5958 31.7021C51.5958 17.5318 40.1085 6.04449 25.9382 6.04449C11.7679 6.04449 0.28064 17.5318 0.28064 31.7021C0.28064 45.8724 11.7679 57.3596 25.9382 57.3596Z" fill="white"/>
<path d="M39.0593 19.5399C38.7553 19.0487 38.4746 18.5341 38.2407 17.9962C38.0302 17.5284 37.4221 17.4816 37.0011 17.7155C36.4632 17.6688 35.855 18.0898 36.0655 18.768C36.3462 19.6802 36.7438 20.569 37.235 21.411C37.5858 22.0191 38.3577 21.9021 38.6851 21.4344C38.9892 21.4578 39.2698 21.3174 39.4803 21.0134C39.6207 20.8029 39.6674 20.5924 39.6908 20.3351C39.7142 19.9843 39.4102 19.6568 39.0593 19.5399Z" fill="black"/>
<path d="M35.7849 9.50602C35.5744 9.24875 35.1534 9.41247 35.0598 9.69314C35.0131 9.66975 34.9429 9.66975 34.8961 9.64636C34.5921 9.62297 34.4283 9.95041 34.4751 10.1843C34.4985 10.2779 34.5219 10.3948 34.5219 10.4884C34.288 10.5585 34.1243 10.8392 34.2412 11.1199C34.4751 11.6344 34.6155 12.149 34.7324 12.7103C34.7792 12.9676 34.9897 13.0377 35.2002 13.0144C35.2002 13.0377 35.2236 13.0611 35.2469 13.0845C35.3639 13.2716 35.551 13.3184 35.6913 13.2716C35.8083 13.5523 36.2527 13.6926 36.4632 13.3418C37.1648 12.2659 36.5333 10.4182 35.7849 9.50602Z" fill="#819CC1"/>
<path d="M51.4555 32.9885C51.4555 32.8715 51.4789 32.778 51.4789 32.661C51.4789 32.5909 51.4789 32.5207 51.4555 32.4505C51.5491 32.3102 51.6193 32.1465 51.6193 31.9594C51.5959 30.9536 51.5491 29.9713 51.4555 28.9656C51.3854 28.147 51.362 27.2582 50.9644 26.5331C50.9644 26.463 50.9644 26.3928 50.9644 26.3226C50.5668 23.399 49.1634 20.7327 47.573 18.3003C46.4036 16.4993 45.1873 14.4411 43.3864 13.2249C43.0122 12.7805 42.6146 12.3829 42.1702 12.0087C42.0298 11.8917 41.8895 11.8216 41.7258 11.7982C41.4217 11.5175 41.1177 11.2368 40.8136 10.9796C40.7201 10.886 40.6031 10.8392 40.4862 10.8158C40.3692 10.6989 40.2289 10.6287 40.112 10.6053C39.9248 10.465 39.7377 10.3247 39.5272 10.1843C39.5038 10.1609 39.4804 10.1376 39.4337 10.1376C39.0127 9.85689 38.6151 9.57623 38.1707 9.31895C38.2408 9.27217 38.2876 9.20201 38.311 9.08506C38.3344 9.0149 38.3344 8.94473 38.3578 8.87456C38.7788 8.43017 39.153 7.9624 39.4804 7.44784C40.0886 6.93329 40.6265 6.39534 41.1644 5.81062C41.1878 5.81062 41.2112 5.78723 41.258 5.78723C41.8193 5.52995 42.3105 5.15573 42.7315 4.71135C42.8017 4.64118 42.8251 4.54762 42.8484 4.47746C43.2227 4.24357 43.5969 4.03307 43.9711 3.82257C44.0647 3.77579 44.1348 3.70562 44.1582 3.61207C44.3453 3.56529 44.4623 3.44835 44.6728 3.26123C45.0002 2.98057 45.3978 2.77007 45.7954 2.58296C46.1463 2.41924 46.4971 2.2789 46.8479 2.11518C47.2689 1.92807 47.7601 1.55385 48.2279 1.71757C48.415 1.76435 48.5553 1.71757 48.6489 1.62402C49.1167 1.90468 49.561 1.15624 49.0933 0.875573C48.6021 0.594906 48.3214 0.431184 47.7367 0.548128C47.0584 0.665073 46.3802 0.852184 45.7253 1.08607C45.1406 1.29657 44.5792 1.57724 44.0413 1.88129C43.4098 2.25552 42.7549 2.46602 42.0532 2.6999C41.9363 2.74668 41.8661 2.81685 41.7959 2.88701C41.5153 3.02735 41.2346 3.19107 41.0241 3.30801C40.5797 3.5419 40.1587 3.79918 39.7377 4.05646C39.691 4.03307 39.6676 4.03307 39.6208 4.03307C39.1764 4.03307 38.7788 4.40729 38.428 4.64118C37.9368 4.96862 37.4456 5.34284 36.9778 5.69368C36.9544 5.71707 36.9311 5.74045 36.9077 5.76384C36.7673 5.8574 36.627 5.95096 36.5101 6.04451C36.3931 5.99773 36.2762 5.99773 36.1592 6.0679C35.5979 6.44212 35.06 6.83973 34.5454 7.28412C34.4518 7.35428 34.4051 7.44784 34.4051 7.5414C34.0542 7.42445 33.68 7.35428 33.3058 7.28412C33.2824 7.28412 33.259 7.28412 33.2356 7.28412C32.8848 7.00345 32.5106 6.81634 32.0662 6.6994C31.9726 6.67601 31.9025 6.67601 31.8323 6.6994C31.7153 6.65262 31.575 6.65262 31.4581 6.72279C31.4347 6.74617 31.4113 6.76956 31.3879 6.76956C31.3411 6.74617 31.2944 6.74618 31.2242 6.74618H31.2008C30.9903 6.60584 30.6628 6.65262 30.5693 6.98006C30.5459 7.05023 30.5459 7.09701 30.5225 7.14379C30.4757 7.23734 30.4524 7.3309 30.4056 7.44784C30.3588 7.5414 30.3822 7.63495 30.4056 7.72851C30.4056 7.7519 30.4056 7.7519 30.4056 7.77528C30.3822 7.84545 30.3822 7.91562 30.3588 7.98578C30.3588 8.03256 30.3588 8.05595 30.3588 8.07934C30.2886 8.28984 30.2185 8.50034 30.1951 8.71084C30.1951 8.75762 30.1951 8.781 30.1951 8.82778C30.1483 8.89795 30.1015 8.96812 30.1015 9.08506C30.1015 9.15523 30.1015 9.24878 30.1015 9.31895C30.0781 9.78673 29.9612 10.2311 29.9612 10.6989C29.9612 11.0029 29.9846 11.307 30.008 11.6111C29.9846 11.9151 29.9846 12.1958 30.0314 12.4998C30.0314 12.5232 30.0314 12.57 30.0547 12.5934C30.1015 13.4354 30.2185 14.3008 30.4523 15.1194C30.4523 15.1662 30.4523 15.2363 30.4523 15.2831C30.5459 15.6573 30.6628 16.0082 30.7798 16.3824C30.7798 16.4058 30.7798 16.4058 30.7798 16.4292C30.8733 17.0139 31.1072 17.5284 31.3645 18.043C31.3645 18.0664 31.3645 18.0898 31.3879 18.1365C31.8323 19.7504 32.8614 21.3174 33.7268 22.7442C33.7502 22.8611 33.8203 22.978 33.9139 23.0482C34.1478 23.2821 34.5454 23.1184 34.639 22.8611C34.639 22.8611 34.639 22.8611 34.6623 22.8611C34.8027 22.9313 34.9664 22.9079 35.0833 22.8611C35.2938 22.978 35.5979 22.8845 35.7148 22.674C35.9721 22.6506 36.206 22.3933 36.1125 22.136C36.1125 22.1126 36.1125 22.1127 36.0891 22.1127C36.1826 22.0659 36.2762 21.9723 36.323 21.8554C36.4633 21.8554 36.5802 21.8086 36.6972 21.7384C36.7206 21.7618 36.7673 21.7618 36.7907 21.7852L37.6093 22.7909C38.2175 23.5394 38.8256 24.3112 39.9014 24.0773C40.1119 24.0305 40.2991 23.8668 40.416 23.6797C40.5096 23.8902 40.6031 24.1007 40.7201 24.3112C41.1411 25.1532 41.679 25.8783 42.4508 26.4162C42.521 26.463 42.5912 26.4864 42.6613 26.5098C42.6847 26.5799 42.6847 26.6267 42.7081 26.6969C42.8017 27.0711 43.1291 27.2582 43.4799 27.305C43.5501 27.4921 43.6437 27.6792 43.7138 27.8663C43.4566 28.1704 43.4098 28.5914 43.7606 28.9422C43.2928 29.0591 42.9654 29.714 43.1993 30.2052C43.1993 30.2052 43.1993 30.2052 43.1759 30.2286C43.1057 30.3221 43.0589 30.3923 43.0122 30.4859C42.3573 30.6262 42.1234 31.6553 42.7783 32.0763C43.3864 32.4739 43.9945 32.9183 44.6494 33.2224C44.6728 33.2224 44.6728 33.2457 44.6962 33.2457C44.7196 33.2691 44.7429 33.2925 44.7663 33.3159C44.9534 33.4562 45.1639 33.503 45.3978 33.5732L45.6551 33.6667C45.6785 33.6667 45.6785 33.6901 45.7019 33.6901C45.8656 33.8071 46.0293 33.8772 46.2164 33.9474C46.2866 33.9708 46.3334 33.9708 46.3802 33.9708C46.5673 34.041 46.7544 34.1345 46.9415 34.2047C46.9883 34.2749 47.0818 34.345 47.1988 34.3684C47.2923 34.3918 47.3625 34.3918 47.4561 34.4152C47.5028 34.4152 47.5496 34.4152 47.5964 34.4152C47.7835 34.4854 47.994 34.5789 48.1577 34.6257C48.4852 34.7192 48.8126 34.7894 49.14 34.8596C49.6078 34.9297 50.099 34.9765 50.5902 34.9999C50.6837 35.0233 50.8007 35.0233 50.8942 34.9999C50.941 34.9999 50.9878 34.9999 51.0579 34.9999C51.1047 34.9999 51.1281 34.9999 51.1749 34.9765C51.362 34.9531 51.4789 34.7894 51.4789 34.6023C51.5959 34.4386 51.6427 34.2047 51.5725 33.9474C51.4555 33.5966 51.4322 33.2925 51.4555 32.9885Z" fill="#829FC7"/>
<path d="M21.7516 11.3538C21.7516 11.2836 21.775 11.2368 21.775 11.1666C21.775 10.8392 21.7516 10.5351 21.7282 10.2077C21.7282 9.97381 21.6815 9.73992 21.6347 9.52942C21.6113 9.27215 21.5879 9.01487 21.5411 8.75759C21.5645 8.68742 21.5645 8.59387 21.5177 8.50032C21.4944 8.43015 21.471 8.35998 21.4476 8.26643C21.4242 8.17287 21.4008 8.07931 21.3774 7.98576C21.354 7.91559 21.3306 7.86882 21.3072 7.84543C21.2839 7.65832 21.2371 7.4712 21.1903 7.28409C21.1669 7.21393 21.1435 7.14376 21.0967 7.09699C21.0967 7.0736 21.0967 7.05021 21.0967 7.02682C21.05 6.6526 20.6056 6.53565 20.3717 6.69937C20.3249 6.72276 20.2781 6.76954 20.2314 6.81632C20.0676 6.74615 19.8805 6.76954 19.7636 6.88648C19.6232 6.88648 19.4829 6.95665 19.3894 7.0502C19.1789 6.93326 18.8748 7.00343 18.7579 7.21393C18.5474 7.09699 18.2199 7.23732 18.1497 7.47121C17.9626 7.33087 17.6586 7.37765 17.5416 7.56476C17.5182 7.54137 17.4949 7.54137 17.4715 7.51798C17.1674 7.21393 16.84 6.93326 16.4891 6.6526C15.998 6.16143 15.4133 5.78721 14.8051 5.43638C14.7818 5.34282 14.735 5.24927 14.6882 5.1791C14.618 5.13232 14.5479 5.06215 14.4777 5.01538C14.3841 4.94521 14.2906 4.89843 14.1736 4.89843C14.1035 4.89843 14.0333 4.92182 13.9631 4.94521C12.5364 3.96288 11.0161 3.16766 9.4491 2.4426C8.72404 1.99821 7.92882 1.67077 7.11021 1.3901C7.01665 1.36671 6.9231 1.36672 6.82954 1.41349C6.22143 1.13283 5.61332 0.898939 4.95843 0.711828C4.84149 0.688439 4.72455 0.711827 4.63099 0.758605C4.30355 0.66505 3.92932 0.641661 3.57849 0.735217C3.5551 0.735217 3.53171 0.758605 3.50832 0.758605C3.39138 0.758605 3.25105 0.758605 3.11071 0.758605C2.57277 0.781994 2.54938 1.64738 3.11071 1.62399C3.81238 1.57721 4.44388 1.83449 5.07538 2.09177C5.21571 2.16194 5.35605 2.13855 5.47299 2.09177C5.98755 2.41921 6.5021 2.69988 7.04004 3.00393C7.92882 3.51849 8.77082 4.10321 9.56604 4.73471C11.1097 5.99771 12.4896 7.42443 13.8228 8.89793C13.893 8.96809 13.9631 9.01487 14.0567 9.01487C13.893 9.01487 13.7293 9.06165 13.5655 9.1552C12.4429 9.95042 11.3436 10.769 10.2677 11.611C9.33215 12.3361 8.3966 13.0611 7.62476 13.9967C7.50782 14.0435 7.39088 14.1136 7.27393 14.254C5.49638 16.359 3.95271 18.6277 2.7131 21.1069C2.66633 21.2005 2.64294 21.2706 2.61955 21.3642C2.59616 21.3876 2.57277 21.411 2.54938 21.4577C2.12838 22.0658 2.03483 22.7909 1.8945 23.516C1.87111 23.6095 1.84772 23.7031 1.84772 23.7966C1.684 24.241 1.49688 24.6854 1.35655 25.1298C1.14605 25.7379 1.00572 26.346 0.935551 26.9775C0.841995 27.0945 0.771828 27.2114 0.748439 27.3517C0.631495 28.1469 0.514551 28.9656 0.467774 29.7608C0.374218 30.2753 0.304051 30.7899 0.397606 31.3278C0.397606 31.7021 0.397608 32.0763 0.420997 32.4505C0.420997 32.5441 0.420998 32.6376 0.444387 32.7312C0.397609 32.7779 0.35083 32.8481 0.304052 32.9183C0.280663 33.0118 0.233887 33.082 0.210498 33.1756C0.163721 33.3627 0.163721 33.5498 0.210498 33.7369C0.233887 33.8071 0.233886 33.9006 0.257275 33.9708C0.280664 34.1111 0.350831 34.2281 0.444387 34.3216C0.467776 34.3684 0.514553 34.4152 0.561331 34.4619C0.514553 34.6958 0.561329 34.9531 0.818606 35.0233C0.912162 35.0467 1.00572 35.0467 1.09927 35.0233C1.16944 35.0467 1.23961 35.0701 1.33316 35.0467C1.40333 35.0233 1.45011 35.0233 1.52027 34.9999H1.54366C1.59044 35.0233 1.63722 35.0467 1.70738 35.0233C1.80094 35.0233 1.91788 34.9999 2.01144 34.9765C2.08161 34.9531 2.12838 34.9297 2.17516 34.9297C2.22194 34.9297 2.2921 34.9063 2.33888 34.8829C2.36227 34.8829 2.38566 34.8829 2.40905 34.8829C2.57277 34.8829 2.7131 34.8596 2.85344 34.8128C2.99377 34.8362 3.15749 34.766 3.29783 34.7192C3.36799 34.6958 3.46155 34.6724 3.53171 34.6491C3.57849 34.6257 3.62527 34.6023 3.67205 34.6023C3.81238 34.5789 3.92933 34.5321 4.06966 34.5087C4.16321 34.5321 4.25677 34.5321 4.37371 34.4853C5.21571 34.2514 5.98755 33.8538 6.75938 33.4562C6.82954 33.4328 6.89971 33.4094 6.96988 33.3627L7.18037 33.2223C7.22715 33.1989 7.25054 33.1756 7.27393 33.1288C7.32071 33.1054 7.3441 33.1054 7.39088 33.082C7.48443 33.0586 7.57799 33.0352 7.69493 32.9651C7.78849 32.9183 7.85865 32.8715 7.92882 32.8013C8.34982 32.6376 8.77082 32.4037 9.07487 32.0763C9.09826 32.0529 9.12165 32.0295 9.14504 32.0061C9.33215 31.7956 9.4491 31.5617 9.4491 31.2811C9.4491 31.0238 9.33215 30.7197 9.14504 30.556C9.07487 30.4858 8.98132 30.4391 8.88776 30.3923C8.88776 29.4099 8.23287 28.4276 7.53121 27.7026C7.46104 27.6324 7.39087 27.5856 7.32071 27.5388C7.39087 27.1178 7.48443 26.7202 7.60137 26.3226C7.92882 25.1064 8.58371 24.0539 9.26198 23.0014C9.47248 22.8143 9.65959 22.6272 9.87009 22.4167C10.1741 22.8143 10.7121 23.0014 11.2033 22.6973C11.3904 22.5804 11.5775 22.4401 11.7646 22.3231C12.0453 22.8377 12.6768 23.1651 13.2147 22.7675C13.6591 22.4401 14.0801 22.1126 14.4777 21.7852C14.5011 21.7852 14.5011 21.7852 14.5245 21.7618C14.618 21.832 14.7116 21.9021 14.8051 21.9489C14.8987 22.0659 15.0156 22.1828 15.156 22.2763C15.3431 22.3933 15.5302 22.4401 15.7173 22.4167C15.7641 22.4635 15.8343 22.5336 15.881 22.5804C16.1149 22.7441 16.3254 22.8143 16.5125 22.7909C16.6061 22.9078 16.7464 23.0248 16.8867 23.095C17.2142 23.2587 17.6118 23.2821 17.9392 23.0482C18.0796 22.978 18.1731 22.8611 18.2667 22.6973L18.4304 22.4167C18.5006 22.2997 18.524 22.1828 18.5474 22.0659C18.6175 21.9957 18.6877 21.9255 18.7345 21.832L19.1555 20.9666C19.1789 20.9198 19.2022 20.873 19.2256 20.8262C19.2958 20.7093 19.366 20.5924 19.4361 20.4754C19.4361 20.452 19.4595 20.452 19.4595 20.4286C19.4829 20.4052 19.4829 20.3585 19.5063 20.3351L19.5765 20.1714C19.5999 20.1012 19.6232 20.0544 19.6466 19.9842C19.6466 19.9842 19.6466 19.9842 19.67 19.9609C19.787 19.7737 19.9039 19.5866 19.9975 19.3761C20.0209 19.306 20.0442 19.2358 20.0676 19.189C20.091 19.1656 20.1144 19.1189 20.1378 19.0721C20.2781 18.768 20.3951 18.464 20.512 18.1599C20.5354 18.0897 20.5588 18.0196 20.5588 17.9494C20.5822 17.9026 20.6056 17.8325 20.629 17.7857C20.629 17.7623 20.6524 17.7389 20.6524 17.7389C20.6757 17.6687 20.6991 17.5986 20.7459 17.5284C20.7459 17.505 20.7459 17.505 20.7693 17.4816C20.7693 17.4582 20.7927 17.4349 20.7927 17.4115C20.8161 17.3647 20.8161 17.3413 20.8161 17.2945C20.8862 17.1308 20.9564 16.9671 21.0266 16.8034C21.0734 16.663 21.0967 16.5461 21.0967 16.4291C21.0967 16.4057 21.1201 16.4057 21.1201 16.3824C21.1669 16.3122 21.2137 16.2186 21.2371 16.1017C21.2605 16.0549 21.2605 15.9847 21.2605 15.938C21.2839 15.821 21.3072 15.6807 21.354 15.5637C21.3774 15.4936 21.3774 15.4234 21.4008 15.3532V15.3299C21.471 15.096 21.5177 14.8387 21.5645 14.6048C21.5645 14.5814 21.5645 14.5346 21.5645 14.5113L21.6113 14.2774C21.6113 14.254 21.6113 14.2306 21.6347 14.1838C21.6347 14.1604 21.6347 14.137 21.6581 14.1136C21.6581 14.0903 21.6581 14.0902 21.6581 14.0669V14.0435C21.6815 13.8564 21.7049 13.6692 21.7282 13.4821C21.7516 13.295 21.7984 13.0845 21.7984 12.8974C21.7984 12.874 21.7984 12.8506 21.7984 12.8273C21.7984 12.8039 21.7984 12.7805 21.7984 12.7805C21.7984 12.7337 21.7984 12.6869 21.8218 12.6401C21.8218 12.6168 21.8218 12.5934 21.8218 12.57V12.5466C21.8218 12.5232 21.8218 12.4998 21.8218 12.4764C21.8218 12.4296 21.8218 12.3829 21.8218 12.3595C21.8218 12.1958 21.8218 12.032 21.8218 11.8449C21.8218 11.7981 21.8218 11.728 21.7984 11.6812C21.7516 11.4473 21.7516 11.4005 21.7516 11.3538ZM14.7818 8.85115C14.7818 8.85115 14.7584 8.85115 14.7584 8.87454C14.618 8.9447 14.5011 9.03826 14.3608 9.10842C14.2672 9.08504 14.1736 9.06165 14.0801 9.06165C14.197 9.06165 14.3374 8.99148 14.4309 8.89793C14.5713 8.9447 14.735 8.92131 14.8519 8.82776C14.8285 8.80437 14.8051 8.82776 14.7818 8.85115ZM14.8753 8.75759C14.9455 8.68742 14.9923 8.61726 15.0156 8.5237C15.039 8.54709 15.0624 8.59387 15.0858 8.61726C15.0156 8.66404 14.9455 8.71081 14.8753 8.75759Z" fill="#829FC7"/>
<path d="M50.2627 7.0034C50.2627 6.93323 50.2393 6.88645 50.2159 6.83967C50.1925 6.60579 50.1692 6.34851 50.1224 6.11462C50.1224 6.04445 50.0756 5.99768 50.0522 5.9509C50.0288 5.13229 49.9353 4.33707 49.7482 3.51846C49.7482 3.47168 49.7248 3.44829 49.7248 3.4249V3.40151C49.7949 3.33135 49.8417 3.26118 49.9119 3.19101C50.0288 3.07407 50.0288 2.93374 49.982 2.81679C49.982 2.7934 50.0054 2.77001 50.0054 2.74663C50.099 2.46596 49.7949 2.25546 49.5611 2.30224C49.5377 2.30224 49.4909 2.32562 49.4675 2.32562C49.4675 2.1619 49.3506 1.99818 49.2102 1.9514C49.1868 1.92801 49.1401 1.90463 49.1167 1.90463C49.0699 1.88124 48.9997 1.88124 48.9296 1.90463C48.2747 1.97479 47.2923 1.9514 46.8246 2.48935C46.31 2.69985 45.8188 2.98051 45.3043 3.28457C44.4623 3.77574 43.6437 4.31368 42.8484 4.8984C41.2346 6.06784 39.7845 7.4244 38.5215 8.96806C38.2876 9.24873 38.5683 9.64634 38.8256 9.59956C39.7611 10.1843 40.6967 10.769 41.6088 11.4005C42.6146 12.0788 43.4332 12.9909 44.2752 13.8329C45.0938 14.6516 45.889 15.4936 46.6374 16.3589C46.9883 16.7799 47.3859 17.2009 47.6432 17.6921C47.9004 18.2067 47.9238 18.8148 48.1343 19.3527C48.2513 19.6568 48.7658 19.7503 48.836 19.3527C49.0933 18.0195 49.3038 16.663 49.4675 15.3064C49.4675 15.2831 49.4675 15.2363 49.4909 15.2129C49.7949 14.2306 49.9587 13.2014 50.0288 12.1723C50.0288 12.0554 49.9821 11.9618 49.9119 11.9151C49.9587 11.4473 49.9821 10.9795 50.0054 10.5117C50.099 10.4649 50.1458 10.3948 50.1692 10.3012C50.3329 9.17856 50.3563 8.10267 50.2627 7.0034Z" fill="#E68F8B"/>
<path d="M13.3082 8.59386C13.2614 8.57047 13.238 8.54708 13.1912 8.54708C13.1678 8.50031 13.1444 8.47691 13.1211 8.45353C13.1211 8.40675 13.0977 8.38336 13.0977 8.33658C12.7936 7.6583 12.2323 7.21392 11.6242 6.86309C11.133 6.30175 10.5483 5.81059 9.94017 5.3662C9.91678 5.34281 9.89339 5.34281 9.87 5.34281C9.84661 5.31942 9.82323 5.29603 9.79984 5.24925C9.75306 5.22586 9.72967 5.17909 9.68289 5.1557C9.54256 5.03876 9.40222 4.92181 9.2385 4.80487C9.19172 4.78148 9.14495 4.75809 9.09817 4.75809C8.607 4.29031 8.02228 3.93948 7.43756 3.58864C6.80606 3.21442 6.03423 2.53615 5.2624 2.46598C4.53734 1.85787 3.5784 1.5772 2.57268 1.97481C2.26862 2.09176 2.26862 2.48937 2.45573 2.6297C2.38557 2.81681 2.36218 3.02731 2.33879 3.16765C2.12829 4.24353 2.05812 5.38959 1.94118 6.46547C1.84762 7.37764 2.01135 8.33658 1.96457 9.24875C1.8944 9.5528 1.84762 9.88025 1.82424 10.1843C1.80085 10.3246 1.87101 10.4182 1.96457 10.4884C1.91779 10.6287 1.8944 10.769 1.84763 10.9094C1.75407 11.19 2.01135 11.3771 2.22184 11.3537C2.17507 11.4941 2.15168 11.6344 2.1049 11.7747C2.05812 11.9385 2.1049 12.0554 2.19846 12.149C2.19846 12.7571 2.22184 13.3418 2.26862 13.9499C2.3154 14.8621 2.40896 15.7742 2.5259 16.6864C2.54929 16.8501 2.66623 16.9203 2.80657 16.9437C2.80657 17.084 2.90012 17.1776 2.99368 17.2243C2.92351 17.4582 2.82996 17.6921 2.75979 17.926C2.66623 18.1833 2.87673 18.3704 3.08723 18.3704C3.01707 18.5341 2.9469 18.6745 2.87673 18.8382C2.68962 19.2592 3.29773 19.6334 3.50823 19.2124C4.23329 17.7857 5.07529 16.4525 6.03423 15.1895C6.12778 15.1895 6.24473 15.1427 6.31489 15.0258C7.88195 12.9676 9.84661 11.2602 12.0919 9.99719C12.2089 9.92702 12.2557 9.83347 12.2791 9.73991L12.3024 9.71653C12.4194 9.73991 12.5597 9.71652 12.6533 9.62297C12.817 9.59958 12.9573 9.50602 12.9807 9.3423C13.0275 9.31891 13.0743 9.31891 13.1211 9.27214C13.4485 9.24875 13.6356 8.78097 13.3082 8.59386Z" fill="#E68F8B"/>
<path d="M3.22765 19.4697C3.15748 19.4697 3.1107 19.4463 3.04053 19.4229C2.83003 19.3294 2.6897 19.0721 2.80665 18.8148C2.85342 18.6979 2.92359 18.5576 2.99376 18.4406C2.87681 18.4172 2.78326 18.347 2.73648 18.2769C2.6897 18.2067 2.64292 18.0898 2.71309 17.926C2.78326 17.7389 2.85342 17.5284 2.94698 17.2712C2.85342 17.2244 2.78326 17.1308 2.75987 17.0139C2.59615 16.9671 2.50259 16.8735 2.4792 16.7098C2.33887 15.7977 2.2687 14.8855 2.22192 13.9733C2.17515 13.3418 2.15176 12.7571 2.15176 12.1958C2.03481 12.1022 2.01142 11.9385 2.0582 11.7748C2.10498 11.6578 2.12837 11.5409 2.15176 11.4239C2.03481 11.4006 1.91787 11.3538 1.8477 11.2602C1.77754 11.1667 1.75415 11.0263 1.80092 10.886C1.82431 10.7691 1.87109 10.6521 1.91787 10.5118C1.82431 10.4416 1.77754 10.3247 1.77754 10.1843C1.80093 9.85689 1.87109 9.55284 1.91787 9.22539C1.94126 8.80439 1.91787 8.33662 1.89448 7.91562C1.87109 7.42446 1.8477 6.93329 1.89448 6.44212C1.91787 6.2784 1.91787 6.13807 1.94126 5.97435C2.03481 5.03879 2.10498 4.05646 2.29209 3.14429C2.29209 3.1209 2.31548 3.07413 2.31548 3.05074C2.33887 2.91041 2.36226 2.77007 2.40904 2.62974C2.31548 2.53618 2.2687 2.37246 2.29209 2.23213C2.31548 2.06841 2.43242 1.95146 2.57276 1.90468C3.50831 1.55385 4.46725 1.71757 5.30925 2.39585C5.89397 2.44263 6.4787 2.84024 6.99325 3.19107C7.15697 3.30802 7.32069 3.42496 7.48442 3.51852H7.50781C8.06914 3.86935 8.65386 4.22018 9.14503 4.66457C9.1918 4.66457 9.23858 4.68796 9.28536 4.73474C9.44908 4.85168 9.58941 4.94523 9.72975 5.08557L9.84669 5.17912C9.87008 5.20251 9.89347 5.2259 9.94025 5.27268C9.96363 5.27268 9.98702 5.29607 9.98702 5.29607C10.6419 5.76384 11.2032 6.25501 11.6944 6.79295C12.4429 7.21395 12.934 7.70512 13.1913 8.28984C13.2147 8.31323 13.2147 8.36001 13.2147 8.40678C13.2381 8.43017 13.2615 8.45356 13.2849 8.47695C13.3316 8.50034 13.355 8.50034 13.4018 8.52373C13.5655 8.61728 13.6357 8.78101 13.5889 8.96812C13.5421 9.15523 13.4018 9.29556 13.2381 9.31895C13.2147 9.34234 13.1679 9.36573 13.1211 9.36573C13.0744 9.52945 12.9106 9.6464 12.7703 9.66978C12.6767 9.76334 12.5598 9.78673 12.4195 9.76334C12.3961 9.88028 12.3259 9.97384 12.209 10.044C9.94025 11.3304 7.99897 13.0144 6.45531 15.0492C6.38514 15.1428 6.2682 15.2129 6.15125 15.2363C5.19231 16.4759 4.35031 17.8091 3.64865 19.2358C3.48492 19.3995 3.34459 19.4697 3.22765 19.4697ZM2.29209 11.307L2.2687 11.4239C2.22192 11.5643 2.19853 11.6812 2.15176 11.8216C2.10498 11.9385 2.15176 12.0554 2.22192 12.1256L2.24531 12.149V12.1724C2.24531 12.7337 2.2687 13.3184 2.31548 13.9499C2.36226 14.8621 2.45581 15.7743 2.57276 16.6631C2.59615 16.8268 2.73648 16.8502 2.80665 16.8735H2.85342V16.9203C2.85342 17.0607 2.94698 17.1308 3.01715 17.1542L3.06392 17.1776L3.04053 17.2244C2.94698 17.505 2.87681 17.7155 2.80665 17.926C2.78326 18.0196 2.78326 18.0898 2.83004 18.1599C2.87681 18.2301 2.97037 18.2769 3.08731 18.3003H3.18087L3.1107 18.4406C3.04053 18.5809 2.99376 18.6979 2.92359 18.8382C2.83003 19.0253 2.94698 19.2124 3.08731 19.2826C3.20425 19.3294 3.34459 19.3294 3.43814 19.1657C4.1632 17.7389 5.0052 16.3824 5.96414 15.1428L5.98753 15.1194H6.01092C6.08108 15.1194 6.17464 15.096 6.2682 14.9791C7.83525 12.9208 9.77653 11.2134 12.0686 9.92706C12.1856 9.85689 12.209 9.76334 12.209 9.71656V9.69317L12.2324 9.66978C12.2324 9.66978 12.2324 9.66978 12.2557 9.64639L12.2791 9.623H12.3025C12.4195 9.64639 12.5364 9.62301 12.6066 9.55284L12.63 9.52945H12.6534C12.7703 9.50606 12.9106 9.43589 12.934 9.29556V9.24878H12.9808C13.0276 9.24878 13.0744 9.2254 13.0977 9.20201H13.1211H13.1445C13.2615 9.17862 13.3784 9.08506 13.4018 8.94473C13.4252 8.87456 13.4252 8.73423 13.2615 8.64067C13.2147 8.61728 13.1913 8.5939 13.1445 8.5939H13.1211V8.57051C13.0977 8.54712 13.0744 8.50034 13.051 8.47695L13.0276 8.45356V8.43017C13.0276 8.40679 13.0276 8.36001 13.0042 8.33662C12.7469 7.7519 12.2791 7.30751 11.5541 6.88651L11.5307 6.86312C11.0629 6.32518 10.5016 5.83401 9.84669 5.38962C9.8233 5.36624 9.8233 5.36623 9.79992 5.36623H9.77652V5.34285C9.75314 5.31946 9.72975 5.29607 9.70636 5.27268L9.58941 5.17912C9.44908 5.06218 9.30875 4.94524 9.14503 4.82829C9.12164 4.8049 9.07486 4.78151 9.05147 4.78151H9.02808L9.00469 4.75812C8.53691 4.29035 7.95219 3.93951 7.36747 3.61207H7.34409C7.18036 3.51851 7.01664 3.40157 6.85292 3.28463C6.33836 2.93379 5.77703 2.55957 5.19231 2.51279H5.16892L5.14553 2.48941C4.35031 1.83452 3.41476 1.6708 2.52598 2.02163C2.38565 2.06841 2.33887 2.20874 2.31548 2.25552C2.29209 2.37246 2.33887 2.51279 2.40904 2.58296L2.43243 2.60635L2.40904 2.65313C2.36226 2.79346 2.33887 2.95718 2.31548 3.09752C2.31548 3.14429 2.29209 3.16768 2.29209 3.19107C2.10498 4.10324 2.03481 5.08557 1.94126 6.02112C1.91787 6.18484 1.91787 6.34857 1.89448 6.4889C1.8477 6.95668 1.87109 7.44784 1.89448 7.93901C1.91787 8.3834 1.94126 8.82778 1.91787 9.27217C1.8477 9.57623 1.80093 9.90367 1.77754 10.2077C1.75415 10.3481 1.82431 10.4182 1.89448 10.4416L1.94126 10.465V10.5118C1.89448 10.6755 1.87109 10.8158 1.82431 10.9328C1.80093 11.0263 1.80092 11.1199 1.87109 11.1901C1.94126 11.2602 2.03481 11.307 2.15176 11.307H2.29209Z" fill="#E68F8B"/>
<path d="M30.195 36.8009C30.1483 36.5202 29.6805 36.4266 29.5869 36.7775C29.3998 37.4324 29.1659 38.0639 28.8619 38.6486C28.8385 38.672 28.8385 38.672 28.8151 38.6954C28.628 38.9292 28.4409 39.1865 28.2772 39.4204C28.3006 38.6252 28.3006 37.83 28.3006 37.0581C28.3239 37.0114 28.3473 36.9646 28.3473 36.9178C28.3473 36.7073 28.3473 36.4734 28.3707 36.2629C28.3941 36.1927 28.3707 36.0992 28.3239 36.029C28.3473 36.0056 28.3473 36.0056 28.3707 35.9822C28.4175 35.9355 28.3473 35.8419 28.2772 35.8887C28.2538 35.9121 28.2304 35.9355 28.207 35.9589C28.207 35.9589 28.207 35.9589 28.1836 35.9589C28.1602 35.9589 28.1602 35.9589 28.1368 35.9589C28.1134 35.9355 28.0667 35.9355 28.0199 35.9355H22.9913C22.9445 35.9355 22.9211 35.9355 22.8743 35.9589C22.851 35.9589 22.8042 35.9589 22.7808 35.9822L22.7574 35.9589C22.7106 35.8887 22.6171 35.9822 22.6638 36.0524L22.6872 36.0758C22.6405 36.146 22.6405 36.2161 22.6638 36.2863C22.6405 36.3097 22.6405 36.3565 22.6405 36.4032C22.7106 37.3856 22.8276 38.3679 22.8276 39.3502C22.7808 39.3502 22.734 39.3502 22.6872 39.3502C22.6872 39.3269 22.6638 39.3035 22.6638 39.2801C22.6171 39.1865 22.5469 39.1397 22.4767 39.093C22.3598 38.8825 22.2195 38.672 22.1025 38.4615C21.9622 38.0872 21.7985 37.713 21.6113 37.3622C21.6113 37.3388 21.6113 37.3154 21.6113 37.292C21.5646 37.0581 21.4944 36.871 21.4008 36.6605C21.4008 36.6605 21.4008 36.6371 21.3775 36.6371C21.3541 36.567 21.3073 36.567 21.2605 36.5904C21.1903 36.5904 21.1202 36.6371 21.1202 36.7073C21.0968 36.7073 21.0734 36.6839 21.0266 36.6839C21.0032 36.6839 20.9565 36.6839 20.9331 36.7073C20.8863 36.6605 20.8395 36.6605 20.7927 36.6839C20.5355 36.871 19.9975 36.8009 19.9273 37.1985C19.8806 37.409 19.9975 37.713 20.0443 37.9001C20.1145 38.2744 20.1846 38.6252 20.2548 38.9994C20.2782 39.0696 20.325 39.093 20.3717 39.093C20.8161 40.8705 21.2839 42.6715 21.9622 44.3555C22.3364 45.291 23.0147 46.0628 23.8567 46.554C23.9035 46.6242 23.9736 46.7177 24.0672 46.7645C24.1607 46.8113 24.2309 46.8581 24.3245 46.9048C24.418 46.9516 24.4882 46.975 24.5817 46.975C24.7221 47.0218 24.839 47.0686 24.9793 47.092C25.1431 47.1153 25.2834 47.1153 25.4471 47.092C25.7512 47.2557 26.1956 47.2089 26.4294 46.9984C26.4528 46.9984 26.4996 46.9984 26.523 46.975C27.0843 46.7879 27.5053 46.4605 27.8328 46.0161C28.0199 46.0161 28.1836 45.9225 28.3006 45.712C28.4175 45.5249 28.4409 45.3378 28.4409 45.1507C29.0256 44.449 29.5168 43.7006 29.891 42.7884C30.5693 41.1278 30.8499 39.2801 31.0838 37.5025C31.2242 36.9178 30.5459 36.567 30.195 36.8009Z" fill="#912819"/>
<path d="M30.1015 42.2738C28.4877 38.2977 22.5469 38.3913 21.0266 41.8295C21.1202 43.0223 22.9913 46.0628 23.576 46.4838C24.1607 46.9048 25.4705 47.3726 26.3125 47.1387C28.6748 46.4604 29.9378 42.765 30.1015 42.2738Z" fill="#DD6E5D"/>
<path d="M41.024 10.9562C41.4684 10.0674 46.5672 4.99204 47.8536 4.29037C48.4149 3.98632 48.9061 3.75243 48.9763 4.8517C49.2569 9.62303 47.2689 16.5695 47.0818 17.201C45.4212 14.371 41.562 11.3304 41.024 10.9562Z" fill="#F9AEAA"/>
<path d="M11.0162 10.9562C10.5718 10.0674 5.47301 4.99204 4.18663 4.29037C3.62529 3.98632 3.13413 3.75243 3.06396 4.8517C2.78329 9.62303 4.77134 16.5695 4.95846 17.201C6.64245 14.371 10.4782 11.3304 11.0162 10.9562Z" fill="#F9AEAA"/>
<path d="M3.53168 18.6277C3.11068 17.4115 3.01713 16.1017 2.83001 14.8153L2.31546 10.9796C2.29207 10.7457 1.91785 10.7457 1.94124 10.9796C2.12835 12.3361 2.29207 13.6927 2.47918 15.0726C2.6429 16.3122 2.75985 17.5518 3.15746 18.7447C3.25101 18.9552 3.60185 18.8616 3.53168 18.6277Z" fill="#E68F8B"/>
<path d="M2.33887 5.22586C2.10498 5.22586 2.10498 5.60008 2.33887 5.60008C2.57276 5.57669 2.57276 5.22586 2.33887 5.22586Z" fill="#E68F8B"/>
<path d="M2.01143 6.11466C1.94127 6.58243 1.91788 7.05021 1.94127 7.51799C1.94127 7.75188 2.31549 7.75188 2.31549 7.51799C2.31549 7.05021 2.33887 6.58243 2.38565 6.11466C2.40904 5.88077 2.05821 5.88077 2.01143 6.11466Z" fill="#E68F8B"/>
<path d="M13.4251 8.73419C11.975 6.95664 10.2677 5.38959 8.34977 4.1032C7.55454 3.58864 6.73593 3.09748 5.89394 2.67648C5.58988 2.51275 5.28583 2.34903 4.98177 2.23209C4.42044 1.97481 3.83572 1.76431 3.22761 1.7877C3.13405 1.76431 3.0405 1.76431 2.94694 1.74092C2.80661 1.71753 2.71305 1.7877 2.68966 1.88126C2.6195 1.90465 2.52594 1.92803 2.45577 1.97481C2.10494 2.13853 2.409 2.67648 2.75983 2.51276C2.90016 2.44259 3.04049 2.39581 3.20422 2.39581C3.78894 2.46598 4.37366 2.58292 4.93499 2.81681C5.12211 2.91037 5.30921 3.00392 5.49633 3.09748C5.77699 3.2612 6.03427 3.44831 6.31494 3.61203C7.27388 4.24353 8.23282 4.89842 9.19177 5.55331C9.26193 5.60008 9.35549 5.62347 9.42565 5.60008C10.7588 6.65258 11.9516 7.84542 13.0275 9.1318C13.238 9.48264 13.659 9.03825 13.4251 8.73419Z" fill="#E68F8B"/>
<path d="M49.0932 20.031L48.3915 19.7971C50.8707 12.1724 49.7948 3.9161 49.4908 2.58293C49.2569 1.64738 48.9996 1.13282 48.5786 0.898934C48.0641 0.618267 47.2454 0.735211 45.7018 1.27315C42.3104 2.48938 37.235 5.13232 34.4517 7.63492L33.9606 7.09698C36.8374 4.47743 41.9128 1.83449 45.4445 0.571489C46.918 0.0335455 48.0874 -0.223731 48.906 0.244047C49.5142 0.571491 49.8884 1.22638 50.1691 2.39582C50.5901 4.05643 51.5958 12.2893 49.0932 20.031Z" fill="black"/>
<path d="M38.4279 9.24873L38.077 9.01484C39.8078 6.3719 45.3977 2.06835 48.2746 1.53041C48.9061 1.41346 49.3972 1.48363 49.7247 1.71752L49.4674 2.06835C49.2335 1.90463 48.8593 1.85785 48.3447 1.95141C45.6082 2.44257 40.0885 6.72273 38.4279 9.24873Z" fill="black"/>
<path d="M2.92358 19.7503C0.467754 12.149 1.49686 4.14997 1.89448 2.44258C2.17514 1.27314 2.57275 0.618251 3.15747 0.290807C3.99947 -0.153582 5.14553 0.103696 6.61902 0.618251C10.1507 1.88125 15.2495 4.52419 18.103 7.14374L17.6118 7.68169C14.8519 5.15569 9.75313 2.51275 6.36174 1.31992C4.84147 0.781973 3.99947 0.665029 3.48492 0.945695C3.08731 1.1562 2.80664 1.67075 2.57275 2.62969C2.17514 4.31369 1.16942 12.1256 3.57847 19.5398L2.92358 19.7503Z" fill="black"/>
<path d="M13.6824 9.24873C12.0218 6.72273 6.50206 2.44257 3.76556 1.95141C3.25101 1.85785 2.87679 1.90463 2.6429 2.06835L2.38562 1.71752C2.71306 1.48363 3.20423 1.41346 3.83573 1.53041C6.73595 2.06835 12.3025 6.3719 14.0333 9.01484L13.6824 9.24873Z" fill="black"/>
<path d="M25.9382 57.6403C11.6243 57.6403 0 45.9926 0 31.702C0 17.388 11.6477 5.76376 25.9382 5.76376C40.2288 5.76376 51.8765 17.4114 51.8765 31.702C51.8765 46.016 40.2288 57.6403 25.9382 57.6403ZM25.9382 6.3251C11.9283 6.3251 0.537944 17.7155 0.537944 31.702C0.537944 45.6885 11.9283 57.0789 25.9149 57.0789C39.9248 57.0789 51.2918 45.6885 51.2918 31.702C51.2918 17.7155 39.9248 6.3251 25.9382 6.3251Z" fill="black"/>
<path d="M0.818606 35.0701C0.701662 35.0701 0.584718 35.0701 0.467773 35.0701V34.9531C2.94699 35.0467 5.89399 34.0409 8.95793 32.0295C11.9049 30.0882 14.7584 27.3283 16.9803 24.241C21.4008 18.1131 22.8275 11.6578 20.9096 6.55905L21.0266 6.51227C22.9679 11.6578 21.5411 18.1365 17.0972 24.3112C12.4663 30.6963 5.82382 35.0701 0.818606 35.0701Z" fill="black"/>
<path d="M50.8708 35.0701C45.8422 35.0701 39.2231 30.6964 34.6155 24.2878C30.1716 18.1132 28.7215 11.6344 30.6862 6.48889L30.8031 6.53567C28.8619 11.6344 30.2886 18.0898 34.7325 24.2176C36.9544 27.305 39.8078 30.0649 42.7548 32.0061C45.8188 34.0176 48.7424 35.0233 51.245 34.9297V35.0467C51.1047 35.0701 50.9877 35.0701 50.8708 35.0701Z" fill="black"/>
<path d="M13.4019 33.5965C16.7991 33.5965 19.5532 30.8425 19.5532 27.4453C19.5532 24.048 16.7991 21.294 13.4019 21.294C10.0046 21.294 7.25061 24.048 7.25061 27.4453C7.25061 30.8425 10.0046 33.5965 13.4019 33.5965Z" fill="#F0C401"/>
<path d="M38.1706 33.5965C41.5678 33.5965 44.3218 30.8425 44.3218 27.4453C44.3218 24.048 41.5678 21.294 38.1706 21.294C34.7733 21.294 32.0193 24.048 32.0193 27.4453C32.0193 30.8425 34.7733 33.5965 38.1706 33.5965Z" fill="#F0C401"/>
<path d="M38.1472 33.4563C38.0303 33.4563 37.9133 33.4563 37.7964 33.4563C35.3406 33.3159 33.3057 31.7489 32.4871 29.3398C32.2766 28.7551 32.6041 28.1236 33.1654 27.9131C33.7501 27.7026 34.3816 28.0301 34.5921 28.5914C35.1301 30.1351 36.3697 31.1174 37.9367 31.2109C39.5973 31.3045 41.1176 30.2988 41.9362 28.6148C42.1935 28.0534 42.8718 27.8196 43.4331 28.1002C43.9944 28.3575 44.2283 29.0358 43.9477 29.5971C42.8016 31.9828 40.603 33.4563 38.1472 33.4563Z" fill="white"/>
<path d="M13.355 33.5264C11.4371 33.5264 9.68298 32.5674 8.53692 30.8834C8.20948 30.4157 8.32642 29.7608 8.81759 29.4333C9.28537 29.1059 9.94026 29.2228 10.2677 29.714C11.0395 30.8367 12.1622 31.4682 13.4252 31.4448C14.8285 31.4214 16.2085 30.6028 17.0972 29.2228C17.4013 28.7317 18.0562 28.5913 18.5474 28.9188C19.0385 29.2228 19.1789 29.8777 18.8514 30.3689C17.5884 32.3335 15.5536 33.5264 13.4486 33.5498C13.4018 33.5264 13.3784 33.5264 13.355 33.5264Z" fill="white"/>
<path d="M41.8194 25.0362C42.3878 25.0362 42.8485 24.5755 42.8485 24.0071C42.8485 23.4387 42.3878 22.978 41.8194 22.978C41.251 22.978 40.7903 23.4387 40.7903 24.0071C40.7903 24.5755 41.251 25.0362 41.8194 25.0362Z" fill="white"/>
<path d="M16.8166 26.0186C17.4495 26.0186 17.9626 25.5055 17.9626 24.8725C17.9626 24.2396 17.4495 23.7265 16.8166 23.7265C16.1836 23.7265 15.6705 24.2396 15.6705 24.8725C15.6705 25.5055 16.1836 26.0186 16.8166 26.0186Z" fill="white"/>
<path d="M13.4019 33.7836C9.91692 33.7836 7.06348 30.9302 7.06348 27.4453C7.06348 23.9603 9.91692 21.1069 13.4019 21.1069C16.8868 21.1069 19.7402 23.9603 19.7402 27.4453C19.7402 30.9302 16.9102 33.7836 13.4019 33.7836ZM13.4019 21.4811C10.104 21.4811 7.4377 24.1474 7.4377 27.4453C7.4377 30.7431 10.104 33.4094 13.4019 33.4094C16.6997 33.4094 19.366 30.7431 19.366 27.4453C19.3894 24.1474 16.6997 21.4811 13.4019 21.4811Z" fill="black"/>
<path d="M38.1705 33.7836C34.6856 33.7836 31.8322 30.9302 31.8322 27.4453C31.8322 23.9603 34.6856 21.1069 38.1705 21.1069C41.6555 21.1069 44.5089 23.9603 44.5089 27.4453C44.5089 30.9302 41.6555 33.7836 38.1705 33.7836ZM38.1705 21.4811C34.8727 21.4811 32.2064 24.1474 32.2064 27.4453C32.2064 30.7431 34.8727 33.4094 38.1705 33.4094C41.4684 33.4094 44.1347 30.7431 44.1347 27.4453C44.1347 24.1474 41.4684 21.4811 38.1705 21.4811Z" fill="black"/>
<path d="M38.2876 31.2576C40.4319 31.2576 42.1701 29.5193 42.1701 27.3751C42.1701 25.2308 40.4319 23.4925 38.2876 23.4925C36.1433 23.4925 34.405 25.2308 34.405 27.3751C34.405 29.5193 36.1433 31.2576 38.2876 31.2576Z" fill="black"/>
<path d="M49.455 38.1803C49.7185 36.5742 48.2478 34.9959 46.17 34.655C44.0923 34.3141 42.1944 35.3398 41.9309 36.9459C41.6673 38.552 43.1381 40.1303 45.2158 40.4712C47.2935 40.8121 49.1915 39.7864 49.455 38.1803Z" fill="#E68E8A"/>
<path d="M46.0292 40.6132C45.772 40.6132 45.4913 40.5899 45.234 40.5431C44.2049 40.3794 43.2928 39.9116 42.6613 39.2333C42.0298 38.555 41.7491 37.7364 41.866 36.9178C42.0064 36.1226 42.5209 35.4209 43.3395 34.9765C44.1581 34.5321 45.1639 34.3918 46.193 34.5555C48.3214 34.9064 49.8182 36.5202 49.561 38.1808C49.3271 39.6309 47.8068 40.6132 46.0292 40.6132ZM45.3744 34.6725C44.6727 34.6725 43.9944 34.8362 43.4097 35.1403C42.6379 35.5612 42.1467 36.1928 42.0298 36.9412C41.9128 37.6896 42.1701 38.4615 42.7782 39.093C43.3863 39.7479 44.2517 40.1922 45.234 40.356C47.2455 40.6834 49.1166 39.7011 49.3739 38.134C49.6311 36.5904 48.181 35.0467 46.1696 34.7193C45.9123 34.6959 45.6316 34.6725 45.3744 34.6725Z" fill="black"/>
<path d="M7.09362 40.4562C9.17135 40.1153 10.6421 38.537 10.3786 36.9309C10.1151 35.3248 8.21711 34.2991 6.13938 34.64C4.06165 34.9809 2.59093 36.5592 2.85444 38.1653C3.11794 39.7714 5.01589 40.7971 7.09362 40.4562Z" fill="#E68E8A"/>
<path d="M6.29167 40.6132C4.51412 40.6132 2.99384 39.6309 2.75996 38.1808C2.47929 36.5202 3.99956 34.9063 6.12795 34.5555C7.15706 34.3918 8.16278 34.5321 8.98139 34.9765C9.8 35.4209 10.3379 36.0992 10.4549 36.9178C10.5952 37.713 10.3146 38.5316 9.65967 39.2333C9.02817 39.9115 8.116 40.3793 7.08689 40.543C6.82962 40.5898 6.57234 40.6132 6.29167 40.6132ZM2.94707 38.1574C3.20434 39.701 5.05206 40.7068 7.08689 40.3793C8.06922 40.2156 8.93461 39.7712 9.54272 39.1163C10.1508 38.4614 10.4081 37.713 10.2912 36.9645C10.1742 36.2161 9.68306 35.5846 8.91122 35.1636C8.13939 34.7426 7.15706 34.6023 6.17473 34.766C4.1399 35.0701 2.68979 36.6137 2.94707 38.1574Z" fill="black"/>
<path d="M9.12173 27.7727C10.3613 26.9541 13.4019 24.8491 17.4949 26.6267C17.8224 26.767 17.9393 27.3283 17.2611 27.2815C14.7117 27.1178 12.1623 27.4219 10.2444 29.4567C10.0573 29.6672 9.63629 29.8309 9.65967 29.1527C9.65967 28.8252 9.70645 28.4978 9.77662 28.2639C9.54273 28.1703 9.37901 28.1469 9.09834 28.1002C8.91123 28.0768 8.95801 27.8897 9.12173 27.7727Z" fill="black"/>
<path d="M25.5875 33.1288C24.7221 32.7312 23.9502 31.6787 23.8099 31.2811C23.7164 31.0238 23.5994 30.5794 24.3712 30.4625C25.0495 30.3689 26.0319 30.4157 26.6867 30.4625C27.3182 30.5327 27.4586 30.7665 27.2013 31.4448C26.9206 32.0295 26.3125 32.7312 25.5875 33.1288Z" fill="black"/>
<path d="M25.5173 47.4428C21.9154 47.4428 20.5121 41.081 19.7636 37.6429C19.7168 37.409 19.6701 37.1751 19.6233 36.9646L19.9741 36.8944C20.0209 37.1049 20.0677 37.3388 20.1145 37.5727C20.7927 40.66 22.1961 47.0686 25.4939 47.0686C29.3063 47.0686 31.0371 38.9994 31.0371 36.9178H31.4113C31.4113 39.3736 29.5869 47.4428 25.5173 47.4428Z" fill="black"/>
<path d="M31.1773 37.1049C30.9201 37.0347 30.8031 36.9879 30.7096 36.9645C30.5926 36.9177 30.4289 36.871 30.4991 36.7073C30.5458 36.5435 30.7096 36.5903 30.8499 36.6137C30.9435 36.6371 31.0838 36.6839 31.2943 36.754L31.1773 37.1049Z" fill="black"/>
<path d="M21.4242 36.3798C21.7516 37.5492 22.0791 38.3678 22.7574 39.3736C22.734 37.9702 22.6638 36.5903 22.6872 35.8886C22.6638 35.608 21.4242 36.3798 21.4242 36.3798Z" fill="white"/>
<path d="M22.734 39.4672C22.7106 39.4672 22.6639 39.4438 22.6639 39.4204C21.9622 38.3445 21.6347 37.5025 21.3307 36.4032C21.3307 36.3565 21.3307 36.3097 21.3775 36.3097C21.7985 36.0524 22.5001 35.6548 22.6872 35.7717C22.734 35.7951 22.7574 35.8419 22.7574 35.9121C22.7574 36.2863 22.7574 36.871 22.7808 37.5493C22.8042 38.1106 22.8276 38.7655 22.8276 39.397C22.8276 39.4438 22.8042 39.4672 22.7574 39.4906C22.7574 39.4672 22.7574 39.4672 22.734 39.4672ZM21.5178 36.4266C21.7985 37.3856 22.0791 38.134 22.6405 39.0462C22.6405 38.5082 22.6171 37.9937 22.5937 37.5259C22.5703 36.871 22.5469 36.3097 22.5703 35.9121C22.43 35.9355 21.9388 36.1694 21.5178 36.4266Z" fill="black"/>
<path d="M29.6571 36.3798C29.3297 37.5492 29.0023 38.3678 28.324 39.3736C28.3474 37.9702 28.4175 36.5903 28.3941 35.8886C28.3941 35.608 29.6571 36.3798 29.6571 36.3798Z" fill="white"/>
<path d="M28.3239 39.4672H28.3005C28.2537 39.4438 28.2303 39.4204 28.2303 39.3736C28.2303 38.7421 28.2537 38.0872 28.2771 37.5259C28.3005 36.8476 28.3239 36.2863 28.3005 35.9121C28.3005 35.8653 28.3239 35.8185 28.3707 35.7717C28.5578 35.6548 29.2828 36.0524 29.6805 36.3097C29.7272 36.3331 29.7272 36.3799 29.7272 36.4032C29.4232 37.5025 29.0957 38.3445 28.3941 39.4204C28.3941 39.4438 28.3707 39.4672 28.3239 39.4672ZM28.4876 35.9121C28.4876 36.2863 28.4876 36.8476 28.4642 37.5025C28.4408 37.9703 28.4409 38.4849 28.4175 39.0228C28.9788 38.1106 29.2595 37.3388 29.5401 36.4032C29.1191 36.1694 28.6513 35.9355 28.4876 35.9121Z" fill="black"/>
<path d="M16.3722 37.5961C16.2318 37.5961 16.1149 37.5961 15.998 37.5961C15.3665 37.5727 14.2438 37.4324 13.893 36.871C13.5655 36.3799 13.6825 35.8653 14.1502 35.4677C14.2204 35.3975 14.3373 35.4209 14.4075 35.4911C14.4777 35.5613 14.4543 35.6782 14.3841 35.7484C14.1502 35.9355 13.9397 36.2629 14.197 36.6839C14.3841 36.988 15.0624 37.1985 16.0213 37.2219C18.3135 37.3388 22.7807 36.4267 25.0494 33.5732C25.1898 33.4095 25.3067 32.8715 25.3067 32.5441C25.3067 32.4505 25.4003 32.357 25.4938 32.357C25.5874 32.357 25.6809 32.4505 25.6809 32.5441C25.6809 32.8949 25.564 33.5498 25.3535 33.8071C23.0848 36.6138 18.8046 37.5961 16.3722 37.5961Z" fill="black"/>
<path d="M34.709 37.5961C32.2532 37.5961 27.9964 36.6138 25.7745 33.8071C25.564 33.5498 25.447 32.8949 25.447 32.5441C25.447 32.4505 25.5406 32.357 25.6341 32.357C25.7277 32.357 25.8212 32.4505 25.8212 32.5441C25.8212 32.8715 25.9382 33.4095 26.0785 33.5732C28.3472 36.4267 32.8145 37.3154 35.1066 37.2219C36.0656 37.1751 36.7438 36.9646 36.931 36.6839C37.2116 36.2629 36.9777 35.9589 36.7438 35.7484C36.6737 35.6782 36.6503 35.5613 36.7205 35.4911C36.7906 35.4209 36.9076 35.3975 36.9777 35.4677C37.4455 35.8653 37.5624 36.3799 37.235 36.871C36.8842 37.4324 35.7615 37.5493 35.13 37.5961C34.9663 37.5961 34.8493 37.5961 34.709 37.5961Z" fill="black"/>
<path d="M28.3239 35.9588H22.6638C22.6404 35.9588 22.5936 35.9354 22.5936 35.8886C22.5936 35.8418 22.617 35.8185 22.6638 35.8185H28.3239C28.3473 35.8185 28.3941 35.8418 28.3941 35.8886C28.3941 35.9354 28.3707 35.9588 28.3239 35.9588Z" fill="black"/>
</svg>
