<svg width="60" height="84" viewBox="0 0 60 84" fill="none" xmlns="http://www.w3.org/2000/svg">
<rect width="60" height="84" fill="white"/>
<path d="M30.3661 53.8605C41.1403 53.8605 49.8744 45.1263 49.8744 34.3522C49.8744 23.5781 41.1403 14.844 30.3661 14.844C19.592 14.844 10.8579 23.5781 10.8579 34.3522C10.8579 45.1263 19.592 53.8605 30.3661 53.8605Z" fill="white"/>
<path d="M40.3426 25.1048C40.1114 24.7314 39.898 24.3401 39.7201 23.9311C39.5601 23.5754 39.0977 23.5399 38.7776 23.7177C38.3686 23.6821 37.9062 24.0022 38.0663 24.518C38.2797 25.2115 38.582 25.8873 38.9555 26.5275C39.2222 26.9898 39.8091 26.9009 40.058 26.5452C40.2892 26.563 40.5026 26.4563 40.6626 26.2252C40.7693 26.0651 40.8049 25.9051 40.8227 25.7094C40.8405 25.4427 40.6093 25.1937 40.3426 25.1048Z" fill="black"/>
<path d="M37.8529 17.4761C37.6929 17.2805 37.3728 17.405 37.3016 17.6184C37.2661 17.6006 37.2127 17.6006 37.1771 17.5828C36.946 17.565 36.8215 17.814 36.857 17.9918C36.8748 18.0629 36.8926 18.1519 36.8926 18.223C36.7148 18.2763 36.5903 18.4897 36.6792 18.7031C36.857 19.0944 36.9637 19.4856 37.0527 19.9124C37.0882 20.108 37.2483 20.1614 37.4083 20.1436C37.4083 20.1614 37.4261 20.1791 37.4439 20.1969C37.5328 20.3392 37.6751 20.3748 37.7818 20.3392C37.8707 20.5526 38.2086 20.6593 38.3686 20.3925C38.9021 19.5745 38.422 18.1696 37.8529 17.4761Z" fill="#819CC1"/>
<path d="M49.7677 35.3304C49.7677 35.2415 49.7855 35.1703 49.7855 35.0814C49.7855 35.0281 49.7855 34.9747 49.7677 34.9214C49.8389 34.8147 49.8922 34.6902 49.8922 34.5479C49.8744 33.7833 49.8389 33.0364 49.7677 32.2717C49.7144 31.6493 49.6966 30.9735 49.3943 30.4222C49.3943 30.3689 49.3943 30.3155 49.3943 30.2622C49.092 28.0393 48.025 26.012 46.8157 24.1625C45.9266 22.7932 45.0018 21.2283 43.6325 20.3035C43.348 19.9657 43.0457 19.6633 42.7078 19.3788C42.6011 19.2899 42.4944 19.2365 42.3699 19.2188C42.1387 19.0054 41.9075 18.792 41.6764 18.5963C41.6052 18.5252 41.5163 18.4897 41.4274 18.4719C41.3385 18.383 41.2318 18.3296 41.1429 18.3118C41.0006 18.2051 40.8583 18.0984 40.6983 17.9917C40.6805 17.9739 40.6627 17.9562 40.6271 17.9562C40.307 17.7428 40.0047 17.5294 39.6669 17.3337C39.7202 17.2982 39.7558 17.2448 39.7736 17.1559C39.7913 17.1026 39.7913 17.0492 39.8091 16.9959C40.1292 16.658 40.4138 16.3023 40.6627 15.9111C41.1251 15.5198 41.5341 15.1108 41.9431 14.6663C41.9609 14.6663 41.9787 14.6485 42.0142 14.6485C42.441 14.4529 42.8145 14.1683 43.1346 13.8304C43.1879 13.7771 43.2057 13.706 43.2235 13.6526C43.508 13.4748 43.7926 13.3147 44.0771 13.1547C44.1482 13.1191 44.2016 13.0658 44.2194 12.9946C44.3616 12.9591 44.4506 12.8701 44.6106 12.7279C44.8596 12.5145 45.1619 12.3544 45.4642 12.2122C45.7309 12.0877 45.9977 11.981 46.2644 11.8565C46.5845 11.7142 46.958 11.4297 47.3137 11.5542C47.4559 11.5897 47.5626 11.5542 47.6338 11.483C47.9894 11.6964 48.3273 11.1274 47.9716 10.914C47.5982 10.7006 47.3848 10.5761 46.9402 10.665C46.4245 10.7539 45.9088 10.8962 45.4109 11.074C44.9663 11.2341 44.5395 11.4475 44.1305 11.6787C43.6503 11.9632 43.1524 12.1232 42.6189 12.3011C42.53 12.3366 42.4766 12.39 42.4233 12.4433C42.2099 12.55 41.9965 12.6745 41.8364 12.7634C41.4985 12.9413 41.1784 13.1369 40.8583 13.3325C40.8228 13.3147 40.805 13.3147 40.7694 13.3147C40.4315 13.3147 40.1292 13.5993 39.8625 13.7771C39.489 14.0261 39.1156 14.3106 38.7599 14.5773C38.7421 14.5951 38.7243 14.6129 38.7066 14.6307C38.5999 14.7018 38.4932 14.773 38.4042 14.8441C38.3153 14.8085 38.2264 14.8085 38.1375 14.8619C37.7107 15.1464 37.3017 15.4487 36.9104 15.7866C36.8393 15.8399 36.8037 15.9111 36.8037 15.9822C36.537 15.8933 36.2525 15.8399 35.9679 15.7866C35.9502 15.7866 35.9324 15.7866 35.9146 15.7866C35.6478 15.5732 35.3633 15.4309 35.0254 15.342C34.9543 15.3242 34.9009 15.3242 34.8476 15.342C34.7587 15.3064 34.652 15.3064 34.5631 15.3598C34.5453 15.3776 34.5275 15.3954 34.5097 15.3954C34.4741 15.3776 34.4386 15.3776 34.3852 15.3776H34.3674C34.2074 15.2709 33.9584 15.3064 33.8873 15.5554C33.8695 15.6088 33.8695 15.6443 33.8517 15.6799C33.8162 15.751 33.7984 15.8222 33.7628 15.9111C33.7272 15.9822 33.745 16.0533 33.7628 16.1245C33.7628 16.1423 33.7628 16.1423 33.7628 16.16C33.745 16.2134 33.745 16.2667 33.7272 16.3201C33.7272 16.3557 33.7272 16.3734 33.7272 16.3912C33.6739 16.5513 33.6205 16.7113 33.6028 16.8714C33.6028 16.9069 33.6028 16.9247 33.6028 16.9603C33.5672 17.0136 33.5316 17.067 33.5316 17.1559C33.5316 17.2093 33.5316 17.2804 33.5316 17.3337C33.5138 17.6894 33.4249 18.0273 33.4249 18.383C33.4249 18.6141 33.4427 18.8453 33.4605 19.0765C33.4427 19.3077 33.4427 19.5211 33.4783 19.7523C33.4783 19.77 33.4783 19.8056 33.4961 19.8234C33.5316 20.4636 33.6205 21.1216 33.7984 21.744C33.7984 21.7796 33.7984 21.8329 33.7984 21.8685C33.8695 22.153 33.9584 22.4198 34.0473 22.7043C34.0473 22.7221 34.0473 22.7221 34.0473 22.7398C34.1185 23.1844 34.2963 23.5757 34.4919 23.9669C34.4919 23.9847 34.4919 24.0025 34.5097 24.038C34.8476 25.2651 35.6301 26.4566 36.288 27.5413C36.3058 27.6302 36.3592 27.7192 36.4303 27.7725C36.6081 27.9503 36.9104 27.8259 36.9816 27.6302C36.9816 27.6302 36.9816 27.6302 36.9994 27.6302C37.1061 27.6836 37.2305 27.6658 37.3195 27.6302C37.4795 27.7192 37.7107 27.648 37.7996 27.488C37.9952 27.4702 38.1731 27.2746 38.1019 27.079C38.1019 27.0612 38.1019 27.0612 38.0841 27.0612C38.1553 27.0256 38.2264 26.9545 38.262 26.8656C38.3687 26.8656 38.4576 26.83 38.5465 26.7766C38.5643 26.7944 38.5999 26.7944 38.6176 26.8122L39.2401 27.5769C39.7024 28.146 40.1648 28.7328 40.9828 28.555C41.1429 28.5194 41.2851 28.3949 41.374 28.2527C41.4452 28.4127 41.5163 28.5728 41.6052 28.7328C41.9253 29.373 42.3343 29.9243 42.9212 30.3333C42.9745 30.3689 43.0279 30.3867 43.0812 30.4044C43.099 30.4578 43.099 30.4933 43.1168 30.5467C43.1879 30.8312 43.4369 30.9735 43.7037 31.0091C43.757 31.1513 43.8281 31.2936 43.8815 31.4359C43.6859 31.667 43.6503 31.9871 43.9171 32.2539C43.5614 32.3428 43.3124 32.8407 43.4903 33.2142C43.4903 33.2142 43.4903 33.2142 43.4725 33.232C43.4191 33.3031 43.3836 33.3565 43.348 33.4276C42.8501 33.5343 42.6722 34.3167 43.1702 34.6368C43.6325 34.9392 44.0949 35.277 44.5928 35.5082C44.6106 35.5082 44.6106 35.526 44.6284 35.526C44.6462 35.5438 44.664 35.5616 44.6817 35.5794C44.824 35.6861 44.984 35.7216 45.1619 35.775L45.3575 35.8461C45.3753 35.8461 45.3753 35.8639 45.3931 35.8639C45.5175 35.9528 45.642 36.0062 45.7843 36.0595C45.8376 36.0773 45.8732 36.0773 45.9088 36.0773C46.051 36.1306 46.1933 36.2018 46.3356 36.2551C46.3711 36.3085 46.4423 36.3618 46.5312 36.3796C46.6023 36.3974 46.6557 36.3974 46.7268 36.4152C46.7624 36.4152 46.7979 36.4152 46.8335 36.4152C46.9758 36.4685 47.1358 36.5397 47.2603 36.5752C47.5093 36.6464 47.7582 36.6997 48.0072 36.7531C48.3629 36.8064 48.7363 36.842 49.1098 36.8598C49.1809 36.8775 49.2698 36.8775 49.3409 36.8598C49.3765 36.8598 49.4121 36.8598 49.4654 36.8598C49.501 36.8598 49.5188 36.8598 49.5543 36.842C49.6966 36.8242 49.7855 36.6997 49.7855 36.5574C49.8744 36.433 49.91 36.2551 49.8567 36.0595C49.7677 35.7928 49.75 35.5616 49.7677 35.3304Z" fill="#829FC7"/>
<path d="M27.183 18.8808C27.183 18.8275 27.2008 18.7919 27.2008 18.7386C27.2008 18.4896 27.183 18.2584 27.1652 18.0095C27.1652 17.8316 27.1297 17.6538 27.0941 17.4938C27.0763 17.2981 27.0585 17.1025 27.023 16.9069C27.0407 16.8536 27.0407 16.7824 27.0052 16.7113C26.9874 16.6579 26.9696 16.6046 26.9518 16.5335C26.934 16.4623 26.9163 16.3912 26.8985 16.3201C26.8807 16.2667 26.8629 16.2311 26.8451 16.2134C26.8273 16.0711 26.7918 15.9288 26.7562 15.7866C26.7384 15.7332 26.7206 15.6799 26.6851 15.6443C26.6851 15.6265 26.6851 15.6087 26.6851 15.5909C26.6495 15.3064 26.3116 15.2175 26.1338 15.342C26.0982 15.3598 26.0627 15.3953 26.0271 15.4309C25.9026 15.3775 25.7603 15.3953 25.6714 15.4842C25.5647 15.4842 25.458 15.5376 25.3869 15.6087C25.2269 15.5198 24.9957 15.5732 24.9068 15.7332C24.7467 15.6443 24.4977 15.751 24.4444 15.9288C24.3021 15.8221 24.0709 15.8577 23.982 16C23.9642 15.9822 23.9465 15.9822 23.9287 15.9644C23.6975 15.7332 23.4485 15.5198 23.1818 15.3064C22.8083 14.933 22.3637 14.6484 21.9014 14.3817C21.8836 14.3105 21.848 14.2394 21.8125 14.1861C21.7591 14.1505 21.7058 14.0971 21.6524 14.0616C21.5813 14.0082 21.5102 13.9727 21.4212 13.9727C21.3679 13.9727 21.3145 13.9904 21.2612 14.0082C20.1764 13.2613 19.0205 12.6567 17.829 12.1054C17.2777 11.7675 16.6731 11.5186 16.0507 11.3052C15.9796 11.2874 15.9084 11.2874 15.8373 11.323C15.3749 11.1096 14.9126 10.9317 14.4146 10.7895C14.3257 10.7717 14.2368 10.7895 14.1657 10.825C13.9167 10.7539 13.6322 10.7361 13.3654 10.8072C13.3476 10.8072 13.3299 10.825 13.3121 10.825C13.2232 10.825 13.1165 10.825 13.0098 10.825C12.6007 10.8428 12.583 11.5008 13.0098 11.483C13.5432 11.4474 14.0234 11.6431 14.5035 11.8387C14.6102 11.892 14.7169 11.8742 14.8059 11.8387C15.1971 12.0876 15.5883 12.301 15.9973 12.5322C16.6731 12.9235 17.3133 13.368 17.9179 13.8482C19.0916 14.8085 20.1408 15.8933 21.1545 17.0136C21.2078 17.067 21.2612 17.1025 21.3323 17.1025C21.2078 17.1025 21.0834 17.1381 20.9589 17.2092C20.1053 17.8138 19.2695 18.4363 18.4514 19.0765C17.7401 19.6277 17.0288 20.179 16.4419 20.8904C16.353 20.9259 16.2641 20.9793 16.1752 21.086C14.8236 22.6865 13.65 24.4114 12.7074 26.2965C12.6719 26.3676 12.6541 26.4209 12.6363 26.4921C12.6185 26.5099 12.6007 26.5276 12.583 26.5632C12.2629 27.0256 12.1917 27.5769 12.085 28.1281C12.0672 28.1993 12.0495 28.2704 12.0495 28.3415C11.925 28.6794 11.7827 29.0173 11.676 29.3552C11.516 29.8176 11.4093 30.2799 11.3559 30.7601C11.2848 30.849 11.2314 30.9379 11.2136 31.0446C11.1247 31.6492 11.0358 32.2716 11.0002 32.8763C10.9291 33.2675 10.8758 33.6587 10.9469 34.0678C10.9469 34.3523 10.9469 34.6368 10.9647 34.9213C10.9647 34.9925 10.9647 35.0636 10.9825 35.1347C10.9469 35.1703 10.9113 35.2237 10.8758 35.277C10.858 35.3481 10.8224 35.4015 10.8046 35.4726C10.7691 35.6149 10.7691 35.7572 10.8046 35.8994C10.8224 35.9528 10.8224 36.0239 10.8402 36.0773C10.858 36.184 10.9113 36.2729 10.9825 36.344C11.0002 36.3796 11.0358 36.4151 11.0714 36.4507C11.0358 36.6285 11.0714 36.8242 11.267 36.8775C11.3381 36.8953 11.4093 36.8953 11.4804 36.8775C11.5337 36.8953 11.5871 36.9131 11.6582 36.8953C11.7116 36.8775 11.7471 36.8775 11.8005 36.8597H11.8183C11.8538 36.8775 11.8894 36.8953 11.9428 36.8775C12.0139 36.8775 12.1028 36.8597 12.1739 36.8419C12.2273 36.8242 12.2629 36.8064 12.2984 36.8064C12.334 36.8064 12.3873 36.7886 12.4229 36.7708C12.4407 36.7708 12.4585 36.7708 12.4763 36.7708C12.6007 36.7708 12.7074 36.753 12.8141 36.7175C12.9208 36.7352 13.0453 36.6819 13.152 36.6463C13.2054 36.6285 13.2765 36.6108 13.3299 36.593C13.3654 36.5752 13.401 36.5574 13.4365 36.5574C13.5432 36.5396 13.6322 36.5041 13.7389 36.4863C13.81 36.5041 13.8811 36.5041 13.97 36.4685C14.6102 36.2907 15.1971 35.9883 15.7839 35.686C15.8373 35.6682 15.8906 35.6505 15.944 35.6149L16.104 35.5082C16.1396 35.4904 16.1574 35.4726 16.1752 35.4371C16.2107 35.4193 16.2285 35.4193 16.2641 35.4015C16.3352 35.3837 16.4064 35.3659 16.4953 35.3126C16.5664 35.277 16.6198 35.2414 16.6731 35.1881C16.9932 35.0636 17.3133 34.8858 17.5445 34.6368C17.5623 34.619 17.5801 34.6012 17.5978 34.5835C17.7401 34.4234 17.829 34.2456 17.829 34.0322C17.829 33.8366 17.7401 33.6054 17.5978 33.4809C17.5445 33.4276 17.4734 33.392 17.4022 33.3564C17.4022 32.6095 16.9043 31.8626 16.3708 31.3113C16.3174 31.258 16.2641 31.2224 16.2107 31.1869C16.2641 30.8668 16.3352 30.5644 16.4241 30.2621C16.6731 29.3374 17.171 28.5372 17.6868 27.7369C17.8468 27.5946 17.9891 27.4524 18.1491 27.2923C18.3803 27.5946 18.7893 27.7369 19.1628 27.5057C19.305 27.4168 19.4473 27.3101 19.5896 27.2212C19.803 27.6124 20.2831 27.8614 20.6921 27.5591C21.03 27.3101 21.3501 27.0611 21.6524 26.8122C21.6702 26.8122 21.6702 26.8122 21.688 26.7944C21.7591 26.8477 21.8302 26.9011 21.9014 26.9367C21.9725 27.0256 22.0614 27.1145 22.1681 27.1856C22.3104 27.2745 22.4527 27.3101 22.5949 27.2923C22.6305 27.3279 22.6838 27.3812 22.7194 27.4168C22.8972 27.5413 23.0573 27.5946 23.1996 27.5769C23.2707 27.6658 23.3774 27.7547 23.4841 27.808C23.7331 27.9325 24.0354 27.9503 24.2843 27.7725C24.391 27.7191 24.4622 27.6302 24.5333 27.5057L24.6578 27.2923C24.7111 27.2034 24.7289 27.1145 24.7467 27.0256C24.8001 26.9722 24.8534 26.9189 24.889 26.8477L25.2091 26.1898C25.2269 26.1542 25.2446 26.1186 25.2624 26.0831C25.3158 25.9942 25.3691 25.9052 25.4225 25.8163C25.4225 25.7985 25.4403 25.7985 25.4403 25.7808C25.458 25.763 25.458 25.7274 25.4758 25.7096L25.5292 25.5851C25.547 25.5318 25.5647 25.4962 25.5825 25.4429C25.5825 25.4429 25.5825 25.4429 25.6003 25.4251C25.6892 25.2828 25.7781 25.1406 25.8493 24.9805C25.867 24.9272 25.8848 24.8738 25.9026 24.8382C25.9204 24.8205 25.9382 24.7849 25.956 24.7493C26.0627 24.5181 26.1516 24.287 26.2405 24.0558C26.2583 24.0024 26.2761 23.9491 26.2761 23.8957C26.2938 23.8602 26.3116 23.8068 26.3294 23.7712C26.3294 23.7535 26.3472 23.7357 26.3472 23.7357C26.365 23.6823 26.3828 23.629 26.4183 23.5756C26.4183 23.5578 26.4183 23.5578 26.4361 23.5401C26.4361 23.5223 26.4539 23.5045 26.4539 23.4867C26.4717 23.4511 26.4717 23.4334 26.4717 23.3978C26.525 23.2733 26.5784 23.1488 26.6317 23.0243C26.6673 22.9176 26.6851 22.8287 26.6851 22.7398C26.6851 22.722 26.7029 22.722 26.7029 22.7042C26.7384 22.6509 26.774 22.5798 26.7918 22.4908C26.8096 22.4553 26.8096 22.4019 26.8096 22.3664C26.8273 22.2774 26.8451 22.1707 26.8807 22.0818C26.8985 22.0285 26.8985 21.9751 26.9163 21.9218V21.904C26.9696 21.7262 27.0052 21.5306 27.0407 21.3527C27.0407 21.3349 27.0407 21.2994 27.0407 21.2816L27.0763 21.1038C27.0763 21.086 27.0763 21.0682 27.0941 21.0326C27.0941 21.0148 27.0941 20.9971 27.1119 20.9793C27.1119 20.9615 27.1119 20.9615 27.1119 20.9437V20.9259C27.1297 20.7837 27.1474 20.6414 27.1652 20.4991C27.183 20.3569 27.2186 20.1968 27.2186 20.0545C27.2186 20.0368 27.2186 20.019 27.2186 20.0012C27.2186 19.9834 27.2186 19.9656 27.2186 19.9656C27.2186 19.9301 27.2186 19.8945 27.2364 19.8589C27.2364 19.8411 27.2364 19.8234 27.2364 19.8056V19.7878C27.2364 19.77 27.2364 19.7522 27.2364 19.7344C27.2364 19.6989 27.2364 19.6633 27.2364 19.6455C27.2364 19.521 27.2364 19.3966 27.2364 19.2543C27.2364 19.2187 27.2364 19.1654 27.2186 19.1298C27.183 18.952 27.183 18.9164 27.183 18.8808ZM21.8836 16.978C21.8836 16.978 21.8658 16.978 21.8658 16.9958C21.7591 17.0492 21.6702 17.1203 21.5635 17.1737C21.4924 17.1559 21.4212 17.1381 21.3501 17.1381C21.439 17.1381 21.5457 17.0847 21.6168 17.0136C21.7235 17.0492 21.848 17.0314 21.9369 16.9603C21.9192 16.9425 21.9014 16.9603 21.8836 16.978ZM21.9547 16.9069C22.0081 16.8536 22.0436 16.8002 22.0614 16.7291C22.0792 16.7469 22.097 16.7824 22.1148 16.8002C22.0614 16.8358 22.0081 16.8713 21.9547 16.9069Z" fill="#829FC7"/>
<path d="M48.8608 15.5729C48.8608 15.5196 48.843 15.484 48.8253 15.4485C48.8075 15.2706 48.7897 15.075 48.7541 14.8972C48.7541 14.8438 48.7186 14.8083 48.7008 14.7727C48.683 14.1503 48.6119 13.5457 48.4696 12.9232C48.4696 12.8877 48.4518 12.8699 48.4518 12.8521V12.8343C48.5052 12.781 48.5407 12.7276 48.5941 12.6743C48.683 12.5854 48.683 12.4787 48.6474 12.3897C48.6474 12.372 48.6652 12.3542 48.6652 12.3364C48.7363 12.123 48.5052 11.9629 48.3273 11.9985C48.3096 11.9985 48.274 12.0163 48.2562 12.0163C48.2562 11.8918 48.1673 11.7673 48.0606 11.7318C48.0428 11.714 48.0072 11.6962 47.9895 11.6962C47.9539 11.6784 47.9005 11.6784 47.8472 11.6962C47.3493 11.7495 46.6024 11.7318 46.2467 12.1408C45.8555 12.3008 45.482 12.5142 45.0908 12.7454C44.4506 13.1189 43.8282 13.5279 43.2235 13.9725C41.9965 14.8616 40.8939 15.893 39.9336 17.0667C39.7558 17.2801 39.9692 17.5825 40.1648 17.5469C40.8761 17.9915 41.5875 18.4361 42.281 18.9162C43.0457 19.4319 43.6681 20.1255 44.3083 20.7657C44.9307 21.3881 45.5354 22.0283 46.1044 22.6863C46.3712 23.0064 46.6735 23.3265 46.8691 23.6999C47.0647 24.0911 47.0825 24.5535 47.2426 24.9625C47.3315 25.1937 47.7227 25.2648 47.7761 24.9625C47.9717 23.9489 48.1317 22.9174 48.2562 21.886C48.2562 21.8682 48.2562 21.8327 48.274 21.8149C48.5052 21.068 48.6297 20.2855 48.683 19.5031C48.683 19.4141 48.6474 19.343 48.5941 19.3074C48.6297 18.9518 48.6474 18.5961 48.6652 18.2404C48.7363 18.2049 48.7719 18.1515 48.7897 18.0804C48.9142 17.2268 48.932 16.4088 48.8608 15.5729Z" fill="#E68F8B"/>
<path d="M20.7631 16.7823C20.7275 16.7645 20.7098 16.7468 20.6742 16.7468C20.6564 16.7112 20.6386 16.6934 20.6208 16.6756C20.6208 16.6401 20.6031 16.6223 20.6031 16.5867C20.3719 16.071 19.9451 15.7331 19.4827 15.4664C19.1093 15.0396 18.6647 14.6661 18.2023 14.3282C18.1845 14.3105 18.1667 14.3105 18.149 14.3105C18.1312 14.2927 18.1134 14.2749 18.0956 14.2393C18.06 14.2215 18.0423 14.186 18.0067 14.1682C17.9 14.0793 17.7933 13.9904 17.6688 13.9014C17.6332 13.8837 17.5977 13.8659 17.5621 13.8659C17.1887 13.5102 16.7441 13.2435 16.2995 12.9767C15.8194 12.6922 15.2325 12.1765 14.6457 12.1231C14.0944 11.6608 13.3653 11.4474 12.6006 11.7497C12.3694 11.8386 12.3694 12.1409 12.5117 12.2476C12.4583 12.3899 12.4405 12.5499 12.4228 12.6566C12.2627 13.4746 12.2094 14.346 12.1204 15.1641C12.0493 15.8576 12.1738 16.5867 12.1382 17.2803C12.0849 17.5114 12.0493 17.7604 12.0315 17.9916C12.0137 18.0983 12.0671 18.1694 12.1382 18.2228C12.1027 18.3295 12.0849 18.4362 12.0493 18.5429C11.9782 18.7563 12.1738 18.8985 12.3338 18.8808C12.2983 18.9875 12.2805 19.0942 12.2449 19.2009C12.2094 19.3253 12.2449 19.4143 12.3161 19.4854C12.3161 19.9478 12.3338 20.3923 12.3694 20.8547C12.405 21.5482 12.4761 22.2418 12.565 22.9353C12.5828 23.0598 12.6717 23.1132 12.7784 23.131C12.7784 23.2377 12.8496 23.3088 12.9207 23.3444C12.8673 23.5222 12.7962 23.7 12.7429 23.8779C12.6717 24.0735 12.8318 24.2157 12.9918 24.2157C12.9385 24.3402 12.8851 24.4469 12.8318 24.5714C12.6895 24.8915 13.1519 25.176 13.3119 24.8559C13.8632 23.7712 14.5034 22.7575 15.2325 21.7972C15.3036 21.7972 15.3926 21.7616 15.4459 21.6727C16.6374 20.1078 18.1312 18.8096 19.8384 17.8493C19.9273 17.796 19.9629 17.7248 19.9806 17.6537L19.9984 17.6359C20.0873 17.6537 20.194 17.6359 20.2652 17.5648C20.3897 17.547 20.4964 17.4759 20.5141 17.3514C20.5497 17.3336 20.5853 17.3336 20.6208 17.298C20.8698 17.2803 21.0121 16.9246 20.7631 16.7823Z" fill="#E68F8B"/>
<path d="M13.0986 25.0517C13.0453 25.0517 13.0097 25.0339 12.9563 25.0161C12.7963 24.945 12.6896 24.7494 12.7785 24.5538C12.8141 24.4648 12.8674 24.3581 12.9208 24.2692C12.8319 24.2514 12.7607 24.1981 12.7252 24.1447C12.6896 24.0914 12.654 24.0025 12.7074 23.878C12.7607 23.7357 12.8141 23.5757 12.8852 23.3801C12.8141 23.3445 12.7607 23.2734 12.7429 23.1845C12.6185 23.1489 12.5473 23.0778 12.5295 22.9533C12.4228 22.2597 12.3695 21.5662 12.3339 20.8726C12.2984 20.3925 12.2806 19.9479 12.2806 19.5211C12.1917 19.45 12.1739 19.3255 12.2094 19.201C12.245 19.1121 12.2628 19.0232 12.2806 18.9343C12.1917 18.9165 12.1027 18.8809 12.0494 18.8098C11.996 18.7386 11.9783 18.6319 12.0138 18.5252C12.0316 18.4363 12.0672 18.3474 12.1027 18.2407C12.0316 18.1874 11.996 18.0984 11.996 17.9917C12.0138 17.7428 12.0672 17.5116 12.1027 17.2626C12.1205 16.9425 12.1027 16.5869 12.085 16.2668C12.0672 15.8933 12.0494 15.5199 12.085 15.1464C12.1027 15.0219 12.1027 14.9152 12.1205 14.7908C12.1917 14.0794 12.245 13.3325 12.3873 12.639C12.3873 12.6212 12.4051 12.5856 12.4051 12.5678C12.4228 12.4611 12.4406 12.3544 12.4762 12.2477C12.4051 12.1766 12.3695 12.0521 12.3873 11.9454C12.4051 11.8209 12.494 11.732 12.6007 11.6965C13.312 11.4297 14.0411 11.5542 14.6813 12.0699C15.1259 12.1055 15.5705 12.4078 15.9617 12.6745C16.0862 12.7635 16.2107 12.8524 16.3352 12.9235H16.3529C16.7797 13.1903 17.2243 13.457 17.5978 13.7949C17.6333 13.7949 17.6689 13.8127 17.7045 13.8482C17.829 13.9372 17.9357 14.0083 18.0424 14.115L18.1313 14.1861C18.1491 14.2039 18.1668 14.2217 18.2024 14.2573C18.2202 14.2573 18.238 14.275 18.238 14.275C18.7359 14.6307 19.1627 15.0042 19.5361 15.4132C20.1052 15.7333 20.4787 16.1067 20.6743 16.5513C20.6921 16.5691 20.6921 16.6046 20.6921 16.6402C20.7098 16.658 20.7276 16.6758 20.7454 16.6936C20.781 16.7113 20.7988 16.7113 20.8343 16.7291C20.9588 16.8003 21.0122 16.9247 20.9766 17.067C20.941 17.2093 20.8343 17.316 20.7098 17.3338C20.6921 17.3515 20.6565 17.3693 20.6209 17.3693C20.5854 17.4938 20.4609 17.5827 20.3542 17.6005C20.283 17.6716 20.1941 17.6894 20.0874 17.6716C20.0696 17.7606 20.0163 17.8317 19.9274 17.885C18.2024 18.8631 16.7264 20.1435 15.5527 21.6907C15.4993 21.7618 15.4104 21.8151 15.3215 21.8329C14.5924 22.7754 13.9522 23.7891 13.4187 24.8739C13.2942 24.9983 13.1875 25.0517 13.0986 25.0517ZM12.3873 18.8453L12.3695 18.9343C12.3339 19.041 12.3161 19.1299 12.2806 19.2366C12.245 19.3255 12.2806 19.4144 12.3339 19.4678L12.3517 19.4855V19.5033C12.3517 19.9301 12.3695 20.3747 12.4051 20.8548C12.4406 21.5484 12.5118 22.2419 12.6007 22.9177C12.6185 23.0422 12.7252 23.06 12.7785 23.0778H12.8141V23.1133C12.8141 23.22 12.8852 23.2734 12.9386 23.2912L12.9741 23.3089L12.9563 23.3445C12.8852 23.5579 12.8319 23.7179 12.7785 23.878C12.7607 23.9491 12.7607 24.0025 12.7963 24.0558C12.8319 24.1092 12.903 24.1447 12.9919 24.1625H13.063L13.0097 24.2692C12.9563 24.3759 12.9208 24.4648 12.8674 24.5715C12.7963 24.7138 12.8852 24.8561 12.9919 24.9094C13.0808 24.945 13.1875 24.945 13.2587 24.8205C13.8099 23.7357 14.4501 22.7043 15.1792 21.7618L15.197 21.744H15.2148C15.2682 21.744 15.3393 21.7262 15.4104 21.6373C16.6019 20.0724 18.0779 18.7742 19.8207 17.7961C19.9096 17.7428 19.9274 17.6716 19.9274 17.6361V17.6183L19.9452 17.6005C19.9452 17.6005 19.9452 17.6005 19.9629 17.5827L19.9807 17.5649H19.9985C20.0874 17.5827 20.1763 17.5649 20.2297 17.5116L20.2475 17.4938H20.2653C20.3542 17.476 20.4609 17.4227 20.4787 17.316V17.2804H20.5142C20.5498 17.2804 20.5854 17.2626 20.6031 17.2448H20.6209H20.6387C20.7276 17.2271 20.8165 17.1559 20.8343 17.0492C20.8521 16.9959 20.8521 16.8892 20.7276 16.818C20.6921 16.8003 20.6743 16.7825 20.6387 16.7825H20.6209V16.7647C20.6031 16.7469 20.5854 16.7113 20.5676 16.6936L20.5498 16.6758V16.658C20.5498 16.6402 20.5498 16.6046 20.532 16.5869C20.3364 16.1423 19.9807 15.8044 19.4294 15.4843L19.4117 15.4665C19.056 15.0575 18.6292 14.6841 18.1313 14.3462C18.1135 14.3284 18.1135 14.3284 18.0957 14.3284H18.0779V14.3106C18.0601 14.2928 18.0423 14.275 18.0246 14.2573L17.9357 14.1861C17.829 14.0972 17.7223 14.0083 17.5978 13.9194C17.58 13.9016 17.5444 13.8838 17.5266 13.8838H17.5089L17.4911 13.866C17.1354 13.5104 16.6908 13.2436 16.2462 12.9946H16.2285C16.104 12.9235 15.9795 12.8346 15.855 12.7457C15.4638 12.4789 15.037 12.1944 14.5924 12.1588H14.5746L14.5568 12.141C13.9522 11.6431 13.2409 11.5186 12.5651 11.7854C12.4584 11.8209 12.4228 11.9276 12.4051 11.9632C12.3873 12.0521 12.4228 12.1588 12.4762 12.2122L12.494 12.23L12.4762 12.2655C12.4406 12.3722 12.4228 12.4967 12.4051 12.6034C12.4051 12.639 12.3873 12.6568 12.3873 12.6745C12.245 13.3681 12.1917 14.115 12.1205 14.8263C12.1027 14.9508 12.1027 15.0753 12.085 15.182C12.0494 15.5376 12.0672 15.9111 12.085 16.2845C12.1027 16.6224 12.1205 16.9603 12.1027 17.2982C12.0494 17.5294 12.0138 17.7783 11.996 18.0095C11.9783 18.1162 12.0316 18.1696 12.085 18.1874L12.1205 18.2051V18.2407C12.085 18.3652 12.0672 18.4719 12.0316 18.5608C12.0138 18.6319 12.0138 18.7031 12.0672 18.7564C12.1205 18.8098 12.1917 18.8453 12.2806 18.8453H12.3873Z" fill="#E68F8B"/>
<path d="M33.6028 38.2291C33.5672 38.0157 33.2116 37.9446 33.1405 38.2113C32.9982 38.7093 32.8204 39.1894 32.5892 39.634C32.5714 39.6518 32.5714 39.6518 32.5536 39.6696C32.4113 39.8474 32.2691 40.043 32.1446 40.2208C32.1624 39.6162 32.1624 39.0116 32.1624 38.4247C32.1802 38.3892 32.1979 38.3536 32.1979 38.318C32.1979 38.158 32.1979 37.9801 32.2157 37.8201C32.2335 37.7668 32.2157 37.6956 32.1802 37.6423C32.1979 37.6245 32.1979 37.6245 32.2157 37.6067C32.2513 37.5711 32.1979 37.5 32.1446 37.5356C32.1268 37.5534 32.109 37.5711 32.0912 37.5889C32.0912 37.5889 32.0912 37.5889 32.0735 37.5889C32.0557 37.5889 32.0557 37.5889 32.0379 37.5889C32.0201 37.5711 31.9845 37.5711 31.949 37.5711H28.1256C28.09 37.5711 28.0722 37.5711 28.0367 37.5889C28.0189 37.5889 27.9833 37.5889 27.9655 37.6067L27.9477 37.5889C27.9122 37.5356 27.841 37.6067 27.8766 37.6601L27.8944 37.6778C27.8588 37.7312 27.8588 37.7845 27.8766 37.8379C27.8588 37.8557 27.8588 37.8912 27.8588 37.9268C27.9122 38.6737 28.0011 39.4206 28.0011 40.1675C27.9655 40.1675 27.93 40.1675 27.8944 40.1675C27.8944 40.1497 27.8766 40.1319 27.8766 40.1141C27.841 40.043 27.7877 40.0074 27.7343 39.9719C27.6454 39.8118 27.5387 39.6518 27.4498 39.4917C27.3431 39.2072 27.2186 38.9227 27.0764 38.6559C27.0764 38.6381 27.0764 38.6204 27.0764 38.6026C27.0408 38.4247 26.9874 38.2825 26.9163 38.1224C26.9163 38.1224 26.9163 38.1046 26.8985 38.1046C26.8807 38.0513 26.8452 38.0513 26.8096 38.0691C26.7563 38.0691 26.7029 38.1046 26.7029 38.158C26.6851 38.158 26.6673 38.1402 26.6318 38.1402C26.614 38.1402 26.5784 38.1402 26.5606 38.158C26.5251 38.1224 26.4895 38.1224 26.4539 38.1402C26.2583 38.2825 25.8493 38.2291 25.796 38.5314C25.7604 38.6915 25.8493 38.9227 25.8849 39.0649C25.9382 39.3495 25.9916 39.6162 26.0449 39.9007C26.0627 39.9541 26.0983 39.9719 26.1338 39.9719C26.4717 41.3234 26.8274 42.6927 27.3431 43.9731C27.6276 44.6844 28.1434 45.2713 28.7836 45.6447C28.8191 45.6981 28.8725 45.7692 28.9436 45.8048C29.0147 45.8404 29.0681 45.8759 29.1392 45.9115C29.2103 45.9471 29.2637 45.9648 29.3348 45.9648C29.4415 46.0004 29.5304 46.036 29.6371 46.0538C29.7616 46.0715 29.8683 46.0715 29.9928 46.0538C30.224 46.1782 30.5619 46.1427 30.7397 45.9826C30.7575 45.9826 30.7931 45.9826 30.8108 45.9648C31.2376 45.8226 31.5577 45.5736 31.8067 45.2357C31.949 45.2357 32.0735 45.1646 32.1624 45.0045C32.2513 44.8623 32.2691 44.72 32.2691 44.5777C32.7136 44.0442 33.0871 43.4752 33.3716 42.7816C33.8873 41.519 34.1007 40.1141 34.2786 38.7626C34.3853 38.318 33.8696 38.0513 33.6028 38.2291Z" fill="#912819"/>
<path d="M33.5316 42.3903C32.3046 39.3672 27.7876 39.4383 26.6317 42.0524C26.7028 42.9594 28.1255 45.2712 28.5701 45.5913C29.0147 45.9114 30.0105 46.2671 30.6507 46.0892C32.4468 45.5735 33.4071 42.7638 33.5316 42.3903Z" fill="#DD6E5D"/>
<path d="M41.8364 18.5785C42.1743 17.9027 46.0511 14.0437 47.0291 13.5102C47.4559 13.2791 47.8294 13.1012 47.8827 13.937C48.0961 17.5648 46.5846 22.8465 46.4423 23.3266C45.1797 21.1748 42.2454 18.863 41.8364 18.5785Z" fill="#F9AEAA"/>
<path d="M19.0205 18.5785C18.6826 17.9027 14.8059 14.0437 13.8278 13.5102C13.401 13.2791 13.0276 13.1012 12.9742 13.937C12.7608 17.5648 14.2724 22.8465 14.4147 23.3266C15.6951 21.1748 18.6115 18.863 19.0205 18.5785Z" fill="#F9AEAA"/>
<path d="M13.3298 24.4114C13.0097 23.4867 12.9386 22.4908 12.7963 21.5127L12.4051 18.5963C12.3873 18.4184 12.1028 18.4184 12.1206 18.5963C12.2628 19.6277 12.3873 20.6591 12.5296 21.7083C12.654 22.6508 12.743 23.5934 13.0453 24.5003C13.1164 24.6604 13.3832 24.5892 13.3298 24.4114Z" fill="#E68F8B"/>
<path d="M12.4229 14.2217C12.2451 14.2217 12.2451 14.5062 12.4229 14.5062C12.6008 14.4884 12.6008 14.2217 12.4229 14.2217Z" fill="#E68F8B"/>
<path d="M12.1739 14.8973C12.1206 15.253 12.1028 15.6086 12.1206 15.9643C12.1206 16.1421 12.4051 16.1421 12.4051 15.9643C12.4051 15.6086 12.4229 15.253 12.4584 14.8973C12.4762 14.7195 12.2095 14.7195 12.1739 14.8973Z" fill="#E68F8B"/>
<path d="M20.8521 16.889C19.7495 15.5375 18.4514 14.346 16.9931 13.3679C16.3885 12.9767 15.7661 12.6032 15.1259 12.2831C14.8947 12.1587 14.6635 12.0342 14.4323 11.9453C14.0055 11.7496 13.561 11.5896 13.0986 11.6074C13.0275 11.5896 12.9563 11.5896 12.8852 11.5718C12.7785 11.554 12.7074 11.6074 12.6896 11.6785C12.6362 11.6963 12.5651 11.7141 12.5117 11.7496C12.245 11.8741 12.4762 12.2831 12.7429 12.1587C12.8496 12.1053 12.9563 12.0697 13.0808 12.0697C13.5254 12.1231 13.97 12.212 14.3968 12.3898C14.539 12.461 14.6813 12.5321 14.8236 12.6032C15.037 12.7277 15.2326 12.87 15.446 12.9945C16.1751 13.4746 16.9042 13.9725 17.6333 14.4705C17.6867 14.506 17.7578 14.5238 17.8112 14.506C18.8248 15.3063 19.7317 16.2132 20.5498 17.1913C20.7098 17.4581 21.0299 17.1202 20.8521 16.889Z" fill="#E68F8B"/>
<path d="M47.9716 25.4782L47.4381 25.3004C49.3231 19.5031 48.5051 13.2256 48.2739 12.2119C48.0961 11.5006 47.9005 11.1094 47.5804 10.9315C47.1891 10.7181 46.5667 10.8071 45.393 11.2161C42.8144 12.1408 38.9555 14.1503 36.8393 16.0531L36.4658 15.6441C38.6532 13.6524 42.5121 11.6429 45.1974 10.6826C46.3177 10.2736 47.2069 10.0779 47.8293 10.4336C48.2917 10.6826 48.5762 11.1805 48.7896 12.0697C49.1097 13.3323 49.8744 19.592 47.9716 25.4782Z" fill="black"/>
<path d="M39.8625 17.2803L39.5957 17.1025C40.9117 15.093 45.1619 11.8209 47.3492 11.4119C47.8294 11.323 48.2028 11.3763 48.4518 11.5541L48.2562 11.8209C48.0783 11.6964 47.7938 11.6608 47.4026 11.732C45.3219 12.1054 41.1251 15.3598 39.8625 17.2803Z" fill="black"/>
<path d="M12.8674 25.2651C11.0002 19.4855 11.7826 13.4036 12.085 12.1055C12.2983 11.2163 12.6007 10.7184 13.0452 10.4694C13.6854 10.1315 14.5568 10.3271 15.6772 10.7184C18.3624 11.6787 22.2392 13.6882 24.4088 15.6799L24.0353 16.0889C21.9369 14.1683 18.0601 12.1588 15.4816 11.2519C14.3256 10.8429 13.6854 10.7539 13.2942 10.9673C12.9919 11.1274 12.7785 11.5186 12.6007 12.2477C12.2983 13.5281 11.5337 19.4677 13.3653 25.105L12.8674 25.2651Z" fill="black"/>
<path d="M21.0477 17.2803C19.7851 15.3598 15.5882 12.1054 13.5076 11.732C13.1164 11.6608 12.8318 11.6964 12.654 11.8209L12.4584 11.5541C12.7073 11.3763 13.0808 11.323 13.5609 11.4119C15.7661 11.8209 19.9985 15.093 21.3144 17.1025L21.0477 17.2803Z" fill="black"/>
<path d="M30.3662 54.0739C19.4828 54.0739 10.6445 45.2178 10.6445 34.3523C10.6445 23.4689 19.5006 14.6306 30.3662 14.6306C41.2317 14.6306 50.0878 23.4867 50.0878 34.3523C50.0878 45.2356 41.2317 54.0739 30.3662 54.0739ZM30.3662 15.0574C19.714 15.0574 11.0535 23.7179 11.0535 34.3523C11.0535 44.9866 19.714 53.6471 30.3484 53.6471C41.0006 53.6471 49.6432 44.9866 49.6432 34.3523C49.6432 23.7179 41.0006 15.0574 30.3662 15.0574Z" fill="black"/>
<path d="M11.267 36.9131C11.1781 36.9131 11.0892 36.9131 11.0002 36.9131V36.8242C12.8853 36.8953 15.126 36.1306 17.4556 34.6012C19.6963 33.1252 21.8658 31.0268 23.5552 28.6794C26.9163 24.0202 28.001 19.112 26.5428 15.2353L26.6317 15.1997C28.1077 19.112 27.023 24.038 23.6441 28.7328C20.1231 33.5876 15.0726 36.9131 11.267 36.9131Z" fill="black"/>
<path d="M49.3231 36.913C45.4997 36.913 40.467 33.5876 36.9637 28.7149C33.5849 24.0202 32.4823 19.0942 33.9761 15.1819L34.0651 15.2175C32.589 19.0942 33.6738 24.0024 37.0526 28.6616C38.7421 31.009 40.9116 33.1074 43.1523 34.5834C45.4819 36.1128 47.7048 36.8775 49.6076 36.8063V36.8953C49.5009 36.913 49.412 36.913 49.3231 36.913Z" fill="black"/>
<path d="M20.8345 35.7925C23.4175 35.7925 25.5115 33.6985 25.5115 31.1155C25.5115 28.5324 23.4175 26.4385 20.8345 26.4385C18.2514 26.4385 16.1575 28.5324 16.1575 31.1155C16.1575 33.6985 18.2514 35.7925 20.8345 35.7925Z" fill="#F0C401"/>
<path d="M39.6667 35.7925C42.2498 35.7925 44.3437 33.6985 44.3437 31.1155C44.3437 28.5324 42.2498 26.4385 39.6667 26.4385C37.0837 26.4385 34.9897 28.5324 34.9897 31.1155C34.9897 33.6985 37.0837 35.7925 39.6667 35.7925Z" fill="#F0C401"/>
<path d="M39.649 35.6861C39.5601 35.6861 39.4712 35.6861 39.3823 35.6861C37.515 35.5794 35.9679 34.3879 35.3455 32.5562C35.1854 32.1117 35.4344 31.6315 35.8612 31.4715C36.3058 31.3114 36.7859 31.5604 36.946 31.9872C37.355 33.1609 38.2975 33.9078 39.489 33.9789C40.7516 34.05 41.9075 33.2854 42.5299 32.005C42.7255 31.5782 43.2413 31.4003 43.6681 31.6137C44.0949 31.8094 44.2727 32.3251 44.0593 32.7519C43.1879 34.5658 41.5163 35.6861 39.649 35.6861Z" fill="white"/>
<path d="M20.7988 35.7394C19.3406 35.7394 18.0069 35.0103 17.1355 33.7299C16.8865 33.3742 16.9754 32.8763 17.3489 32.6273C17.7046 32.3784 18.2025 32.4673 18.4515 32.8407C19.0383 33.6943 19.8919 34.1745 20.8522 34.1567C21.9192 34.1389 22.9684 33.5165 23.6442 32.4673C23.8754 32.0938 24.3733 31.9871 24.7467 32.2361C25.1202 32.4673 25.2269 32.9652 24.9779 33.3387C24.0176 34.8325 22.4705 35.7394 20.87 35.7572C20.8344 35.7394 20.8166 35.7394 20.7988 35.7394Z" fill="white"/>
<path d="M42.4412 29.2839C42.8733 29.2839 43.2236 28.9336 43.2236 28.5015C43.2236 28.0693 42.8733 27.719 42.4412 27.719C42.009 27.719 41.6587 28.0693 41.6587 28.5015C41.6587 28.9336 42.009 29.2839 42.4412 29.2839Z" fill="white"/>
<path d="M23.4307 30.0308C23.912 30.0308 24.3021 29.6407 24.3021 29.1595C24.3021 28.6782 23.912 28.2881 23.4307 28.2881C22.9495 28.2881 22.5593 28.6782 22.5593 29.1595C22.5593 29.6407 22.9495 30.0308 23.4307 30.0308Z" fill="white"/>
<path d="M20.8344 35.9349C18.1847 35.9349 16.0151 33.7654 16.0151 31.1157C16.0151 28.4659 18.1847 26.2964 20.8344 26.2964C23.4841 26.2964 25.6537 28.4659 25.6537 31.1157C25.6537 33.7654 23.5019 35.9349 20.8344 35.9349ZM20.8344 26.5809C18.327 26.5809 16.2997 28.6082 16.2997 31.1157C16.2997 33.6231 18.327 35.6504 20.8344 35.6504C23.3418 35.6504 25.3691 33.6231 25.3691 31.1157C25.3869 28.6082 23.3418 26.5809 20.8344 26.5809Z" fill="black"/>
<path d="M39.6668 35.9349C37.0171 35.9349 34.8475 33.7654 34.8475 31.1157C34.8475 28.4659 37.0171 26.2964 39.6668 26.2964C42.3165 26.2964 44.4861 28.4659 44.4861 31.1157C44.4861 33.7654 42.3165 35.9349 39.6668 35.9349ZM39.6668 26.5809C37.1594 26.5809 35.1321 28.6082 35.1321 31.1157C35.1321 33.6231 37.1594 35.6504 39.6668 35.6504C42.1742 35.6504 44.2015 33.6231 44.2015 31.1157C44.2015 28.6082 42.1742 26.5809 39.6668 26.5809Z" fill="black"/>
<path d="M39.7557 34.0142C41.3861 34.0142 42.7078 32.6925 42.7078 31.0621C42.7078 29.4318 41.3861 28.1101 39.7557 28.1101C38.1254 28.1101 36.8037 29.4318 36.8037 31.0621C36.8037 32.6925 38.1254 34.0142 39.7557 34.0142Z" fill="black"/>
<path d="M48.2467 39.2778C48.447 38.0566 47.3288 36.8565 45.749 36.5974C44.1693 36.3382 42.7262 37.118 42.5259 38.3392C42.3255 39.5603 43.4437 40.7604 45.0235 41.0196C46.6033 41.2788 48.0463 40.4989 48.2467 39.2778Z" fill="#E68E8A"/>
<path d="M45.6419 41.1278C45.4463 41.1278 45.2329 41.11 45.0373 41.0745C44.2548 40.95 43.5613 40.5943 43.0811 40.0786C42.601 39.5629 42.3876 38.9405 42.4765 38.3181C42.5832 37.7134 42.9744 37.1799 43.5969 36.8421C44.2193 36.5042 44.984 36.3975 45.7664 36.522C47.3847 36.7887 48.5228 38.0157 48.3272 39.2784C48.1494 40.3809 46.9935 41.1278 45.6419 41.1278ZM45.144 36.6109C44.6105 36.6109 44.0948 36.7354 43.6502 36.9665C43.0634 37.2866 42.6899 37.7668 42.601 38.3358C42.5121 38.9049 42.7077 39.4918 43.1701 39.9719C43.6324 40.4698 44.2904 40.8077 45.0373 40.9322C46.5667 41.1812 47.9893 40.4343 48.1849 39.2428C48.3806 38.0691 47.278 36.8954 45.7486 36.6464C45.553 36.6287 45.3396 36.6109 45.144 36.6109Z" fill="black"/>
<path d="M16.0381 41.0081C17.6179 40.7489 18.7361 39.5489 18.5357 38.3277C18.3354 37.1065 16.8923 36.3267 15.3126 36.5859C13.7328 36.8451 12.6146 38.0451 12.8149 39.2663C13.0153 40.4875 14.4583 41.2673 16.0381 41.0081Z" fill="#E68E8A"/>
<path d="M15.4284 41.1276C14.0769 41.1276 12.921 40.3807 12.7432 39.2781C12.5298 38.0155 13.6857 36.7885 15.304 36.5217C16.0864 36.3972 16.8511 36.5039 17.4735 36.8418C18.0959 37.1797 18.5049 37.6954 18.5939 38.3178C18.7006 38.9224 18.4872 39.5449 17.9892 40.0784C17.5091 40.5941 16.8155 40.9497 16.0331 41.0742C15.8375 41.1098 15.6418 41.1276 15.4284 41.1276ZM12.8854 39.2603C13.081 40.434 14.4859 41.1987 16.0331 40.9497C16.78 40.8253 17.4379 40.4874 17.9003 39.9894C18.3627 39.4915 18.5583 38.9224 18.4694 38.3534C18.3805 37.7843 18.007 37.3042 17.4202 36.9841C16.8333 36.664 16.0864 36.5573 15.3395 36.6818C13.7924 36.9129 12.6898 38.0866 12.8854 39.2603Z" fill="black"/>
<path d="M17.5801 31.3645C18.5226 30.742 20.8345 29.1416 23.9465 30.4931C24.1955 30.5998 24.2844 31.0266 23.7687 30.991C21.8303 30.8665 19.892 31.0977 18.4337 32.6449C18.2915 32.8049 17.9714 32.9294 17.9891 32.4137C17.9891 32.1647 18.0247 31.9157 18.0781 31.7379C17.9002 31.6668 17.7757 31.649 17.5623 31.6134C17.4201 31.5956 17.4556 31.4534 17.5801 31.3645Z" fill="black"/>
<path d="M30.0994 35.437C29.4415 35.1347 28.8546 34.3345 28.7479 34.0321C28.6768 33.8365 28.5879 33.4986 29.1747 33.4097C29.6904 33.3386 30.4373 33.3742 30.9352 33.4097C31.4154 33.4631 31.5221 33.6409 31.3265 34.1566C31.1131 34.6012 30.6507 35.1347 30.0994 35.437Z" fill="black"/>
<path d="M30.0461 46.3205C27.3075 46.3205 26.2405 41.4835 25.6714 38.8694C25.6358 38.6915 25.6003 38.5137 25.5647 38.3536L25.8314 38.3003C25.867 38.4603 25.9026 38.6382 25.9381 38.816C26.4539 41.1634 27.5209 46.036 30.0283 46.036C32.927 46.036 34.2429 39.9008 34.2429 38.3181H34.5275C34.5275 40.1853 33.1404 46.3205 30.0461 46.3205Z" fill="black"/>
<path d="M34.3496 38.46C34.154 38.4066 34.0651 38.3711 33.9939 38.3533C33.905 38.3177 33.7805 38.2822 33.8339 38.1577C33.8695 38.0332 33.9939 38.0688 34.1006 38.0865C34.1718 38.1043 34.2785 38.1399 34.4385 38.1932L34.3496 38.46Z" fill="black"/>
<path d="M26.934 37.9087C27.1829 38.7979 27.4319 39.4203 27.9476 40.185C27.9298 39.118 27.8765 38.0687 27.8943 37.5352C27.8765 37.3218 26.934 37.9087 26.934 37.9087Z" fill="white"/>
<path d="M27.9299 40.2562C27.9121 40.2562 27.8766 40.2384 27.8766 40.2206C27.3431 39.4026 27.0941 38.7624 26.8629 37.9265C26.8629 37.891 26.8629 37.8554 26.8985 37.8554C27.2186 37.6598 27.7521 37.3575 27.8943 37.4464C27.9299 37.4642 27.9477 37.4997 27.9477 37.5531C27.9477 37.8376 27.9477 38.2822 27.9655 38.7979C27.9833 39.2247 28.001 39.7227 28.001 40.2028C28.001 40.2384 27.9833 40.2562 27.9477 40.2739C27.9477 40.2562 27.9477 40.2562 27.9299 40.2562ZM27.0052 37.9443C27.2186 38.6734 27.432 39.2425 27.8588 39.9361C27.8588 39.527 27.841 39.1358 27.8232 38.7801C27.8054 38.2822 27.7876 37.8554 27.8054 37.5531C27.6987 37.5709 27.3253 37.7487 27.0052 37.9443Z" fill="black"/>
<path d="M33.1938 37.9087C32.9449 38.7979 32.6959 39.4203 32.1802 40.185C32.198 39.118 32.2513 38.0687 32.2335 37.5352C32.2335 37.3218 33.1938 37.9087 33.1938 37.9087Z" fill="white"/>
<path d="M32.1801 40.2562H32.1624C32.1268 40.2384 32.109 40.2206 32.109 40.185C32.109 39.7049 32.1268 39.2069 32.1446 38.7801C32.1624 38.2644 32.1801 37.8376 32.1624 37.5531C32.1624 37.5175 32.1801 37.482 32.2157 37.4464C32.358 37.3575 32.9093 37.6598 33.2116 37.8554C33.2471 37.8732 33.2471 37.9088 33.2471 37.9265C33.016 38.7624 32.767 39.4026 32.2335 40.2206C32.2335 40.2384 32.2157 40.2562 32.1801 40.2562ZM32.3046 37.5531C32.3046 37.8376 32.3046 38.2644 32.2868 38.7624C32.2691 39.118 32.2691 39.5093 32.2513 39.9183C32.6781 39.2247 32.8915 38.6379 33.1049 37.9265C32.7848 37.7487 32.4291 37.5709 32.3046 37.5531Z" fill="black"/>
<path d="M23.0928 38.8335C22.9861 38.8335 22.8972 38.8335 22.8083 38.8335C22.3281 38.8158 21.4745 38.7091 21.2078 38.2823C20.9588 37.9088 21.0477 37.5176 21.4034 37.2153C21.4567 37.1619 21.5457 37.1797 21.599 37.2331C21.6524 37.2864 21.6346 37.3753 21.5812 37.4287C21.4034 37.5709 21.2433 37.8199 21.439 38.14C21.5812 38.3712 22.0969 38.5312 22.8261 38.549C24.5688 38.6379 27.9654 37.9444 29.6904 35.7748C29.7971 35.6503 29.886 35.2413 29.886 34.9924C29.886 34.9212 29.9571 34.8501 30.0283 34.8501C30.0994 34.8501 30.1705 34.9212 30.1705 34.9924C30.1705 35.2591 30.0816 35.757 29.9216 35.9527C28.1966 38.0867 24.9423 38.8335 23.0928 38.8335Z" fill="black"/>
<path d="M37.0348 38.8335C35.1676 38.8335 31.9311 38.0867 30.2416 35.9527C30.0816 35.757 29.9927 35.2591 29.9927 34.9924C29.9927 34.9212 30.0638 34.8501 30.1349 34.8501C30.2061 34.8501 30.2772 34.9212 30.2772 34.9924C30.2772 35.2413 30.3661 35.6503 30.4728 35.7748C32.1978 37.9444 35.5944 38.6201 37.3372 38.549C38.0663 38.5134 38.582 38.3534 38.7243 38.14C38.9377 37.8199 38.7598 37.5887 38.582 37.4287C38.5286 37.3753 38.5109 37.2864 38.5642 37.2331C38.6176 37.1797 38.7065 37.1619 38.7598 37.2153C39.1155 37.5176 39.2044 37.9088 38.9554 38.2823C38.6887 38.7091 37.8351 38.798 37.3549 38.8335C37.2305 38.8335 37.1415 38.8335 37.0348 38.8335Z" fill="black"/>
<path d="M32.1801 37.5886H27.8766C27.8588 37.5886 27.8232 37.5709 27.8232 37.5353C27.8232 37.4997 27.841 37.4819 27.8766 37.4819H32.1801C32.1979 37.4819 32.2335 37.4997 32.2335 37.5353C32.2335 37.5709 32.2157 37.5886 32.1801 37.5886Z" fill="black"/>
<path d="M12.8315 64.7439H17.0106V70.4523C16.3349 70.6835 15.6769 70.8258 15.0367 70.9325C14.3965 71.0392 13.7207 71.0748 12.9916 71.0748C11.2666 71.0748 9.95066 70.559 9.00815 69.5454C8.08342 68.5317 7.60327 67.0913 7.60327 65.2418C7.60327 63.4102 8.13677 61.9875 9.18598 60.9561C10.2352 59.9246 11.6756 59.4089 13.5251 59.4089C14.7166 59.4089 15.8369 59.6401 16.9039 60.0847L16.2459 61.6318C15.3212 61.205 14.3965 60.9916 13.4895 60.9916C12.2803 60.9916 11.32 61.3651 10.6086 62.1298C9.89731 62.8945 9.55943 63.9259 9.55943 65.2596C9.55943 66.6467 9.87953 67.6959 10.5019 68.425C11.1421 69.1542 12.0491 69.5098 13.2406 69.5098C13.8452 69.5098 14.4854 69.4387 15.1612 69.2786V66.3444H12.8315V64.7439ZM26.1512 70.9147H19.7315V59.569H26.1512V61.1339H21.5809V64.2282H25.8667V65.7753H21.5809V69.332H26.1512V70.9147ZM38.066 70.9147H35.7897L30.2058 61.863H30.1524L30.188 62.361C30.2591 63.3212 30.2947 64.2104 30.2947 64.9929V70.8969H28.6053V59.5512H30.8638L36.4299 68.5495H36.4833C36.4655 68.425 36.4477 67.9982 36.4299 67.2513C36.3944 66.5045 36.3766 65.9176 36.3766 65.5086V59.569H38.0838V70.9147H38.066ZM49.7318 70.9147H47.58L44.0234 65.7753L42.9208 66.6645V70.9147H41.0714V59.569H42.9208V64.9751C43.4365 64.3527 43.9345 63.748 44.4324 63.179L47.4911 59.5512H49.6073C47.6156 61.8808 46.2107 63.5347 45.3394 64.5305L49.7318 70.9147ZM51.2256 70.9147V59.569H53.0751V70.9147H51.2256Z" fill="url(#paint0_linear_704_5)"/>
<defs>
<linearGradient id="paint0_linear_704_5" x1="23.9081" y1="52.2719" x2="39.2741" y2="78.8866" gradientUnits="userSpaceOnUse">
<stop offset="0.1926" stop-color="#B63232"/>
<stop offset="0.7544" stop-color="#D27167"/>
</linearGradient>
</defs>
</svg>
